<?xml version="1.0" encoding="utf-8"?>
<!-- Generator: Adobe Illustrator 22.0.1, SVG Export Plug-In . SVG Version: 6.00 Build 0)  -->
<svg version="1.1" id="Calque_1" xmlns="http://www.w3.org/2000/svg" xmlns:xlink="http://www.w3.org/1999/xlink" x="0px" y="0px"
	 viewBox="0 0 515 518.3" style="enable-background:new 0 0 515 518.3;" xml:space="preserve">
<style type="text/css">
	.st0{fill:none;}
	.st1{fill:#0000FF;}
	.st2{fill:#FFFFFF;}
</style>
<path id="SVGID_x5F_1_x5F_" class="st0" d="M377.2,34C500.7,99.6,547.6,252.8,482,376.2S263.2,546.6,139.8,481.1
	S-30.6,262.3,34.9,138.9S253.7-31.5,377.2,34z"/>
<g>
	<g>
		<path class="st1" d="M26.1,345.9h-0.8c0.6,1.6,1.2,3.1,1.8,4.6h0.8C27.3,349,26.7,347.5,26.1,345.9z"/>
		<path class="st2" d="M26.1,345.9h-0.8c0.6,1.6,1.2,3.1,1.8,4.6h0.8C27.3,349,26.7,347.5,26.1,345.9L26.1,345.9z"/>
	</g>
	<g>
		<path class="st1" d="M24.2,341.7L24.2,341.7L24.2,341.7z"/>
		<path class="st2" d="M24.4,341.3h-0.8c0.6,1.5,1.1,3.1,1.7,4.6h0.8C25.5,344.4,25,342.8,24.4,341.3L24.4,341.3z"/>
	</g>
	<g>
		<path class="st1" d="M23.9,340.9c-0.5-1.3-0.9-2.6-1.3-3.9l0,0C23,338.3,23.4,339.6,23.9,340.9L23.9,340.9z"/>
		<path class="st2" d="M22.8,336.7H22c0.5,1.5,1.1,3.1,1.6,4.6h0.8C23.9,339.8,23.3,338.2,22.8,336.7L22.8,336.7z"/>
	</g>
	<g>
		<path class="st1" d="M22.3,336.3c-0.4-1.3-0.9-2.6-1.3-3.9l0,0C21.5,333.7,21.9,335,22.3,336.3L22.3,336.3z"/>
		<path class="st2" d="M21.3,332h-0.8c0.5,1.5,1,3.1,1.5,4.6h0.8C22.3,335.1,21.8,333.6,21.3,332L21.3,332z"/>
	</g>
	<g>
		<path class="st1" d="M19.4,327c-0.4-1.3-0.7-2.6-1.1-3.9l0,0C18.7,324.5,19,325.7,19.4,327L19.4,327z"/>
		<path class="st2" d="M18.6,322.8h-0.8c0.4,1.5,0.9,3.1,1.3,4.6h0.8C19.5,325.9,19,324.3,18.6,322.8L18.6,322.8z"/>
	</g>
	<g>
		<path class="st1" d="M20.8,331.7c-0.4-1.3-0.8-2.6-1.2-3.9l0,0C20,329.1,20.4,330.4,20.8,331.7L20.8,331.7z"/>
		<path class="st2" d="M19.9,327.4h-0.8c0.5,1.5,0.9,3.1,1.4,4.6h0.8C20.8,330.5,20.4,329,19.9,327.4L19.9,327.4z"/>
	</g>
	<g>
		<path class="st1" d="M36.3,369.1h-0.8c0.8,1.6,1.6,3.1,2.4,4.6h0.8C37.9,372.2,37.1,370.6,36.3,369.1z"/>
		<path class="st2" d="M36.3,369.1h-0.8c0.8,1.6,1.6,3.1,2.4,4.6h0.8C37.9,372.2,37.1,370.6,36.3,369.1L36.3,369.1z"/>
	</g>
	<g>
		<path class="st1" d="M27.9,350.5h-0.8c0.6,1.6,1.3,3.1,1.9,4.6h0.8C29.2,353.6,28.6,352.1,27.9,350.5z"/>
		<path class="st2" d="M27.9,350.5h-0.8c0.6,1.6,1.3,3.1,1.9,4.6h0.8C29.2,353.6,28.6,352.1,27.9,350.5L27.9,350.5z"/>
	</g>
	<g>
		<path class="st1" d="M18.1,322.4c-0.3-1.3-0.7-2.6-1-3.9l0,0C17.5,319.8,17.8,321.1,18.1,322.4L18.1,322.4z"/>
		<path class="st2" d="M17.4,318.2h-0.8c0.4,1.5,0.8,3.1,1.2,4.6h0.8C18.2,321.2,17.8,319.7,17.4,318.2L17.4,318.2z"/>
	</g>
	<g>
		<path class="st1" d="M34,364.4h-0.8c0.7,1.6,1.5,3.1,2.3,4.6h0.8C35.5,367.5,34.8,366,34,364.4z"/>
		<path class="st2" d="M34,364.4h-0.8c0.7,1.6,1.5,3.1,2.3,4.6h0.8C35.5,367.5,34.8,366,34,364.4L34,364.4z"/>
	</g>
	<g>
		<path class="st1" d="M29.8,355.2H29c0.7,1.6,1.3,3.1,2,4.6h0.8C31.2,358.3,30.5,356.7,29.8,355.2z"/>
		<path class="st2" d="M29.8,355.2H29c0.7,1.6,1.3,3.1,2,4.6h0.8C31.2,358.3,30.5,356.7,29.8,355.2L29.8,355.2z"/>
	</g>
	<g>
		<path class="st1" d="M31.9,359.8h-0.8c0.7,1.6,1.4,3.1,2.1,4.6H34C33.3,362.9,32.6,361.4,31.9,359.8z"/>
		<path class="st2" d="M31.9,359.8h-0.8c0.7,1.6,1.4,3.1,2.1,4.6H34C33.3,362.9,32.6,361.4,31.9,359.8L31.9,359.8z"/>
	</g>
	<g>
		<path class="st1" d="M10.3,276.1c-0.1-1.3-0.2-2.6-0.3-3.9h0.1C10.1,273.5,10.2,274.8,10.3,276.1L10.3,276.1z"/>
		<path class="st2" d="M10.4,271.9H9.6c0.1,1.5,0.2,3.1,0.3,4.6h0.8C10.6,275,10.5,273.4,10.4,271.9L10.4,271.9z"/>
	</g>
	<g>
		<path class="st1" d="M10,271.5c-0.1-1.3-0.1-2.6-0.2-3.9h0.1C9.9,268.9,10,270.2,10,271.5L10,271.5z"/>
		<path class="st2" d="M10.2,267.2H9.4c0.1,1.5,0.1,3.1,0.2,4.6h0.8C10.3,270.3,10.3,268.8,10.2,267.2L10.2,267.2z"/>
	</g>
	<g>
		<path class="st1" d="M38.7,373.7h-0.8c0.8,1.6,1.7,3.1,2.5,4.6h0.8C40.3,376.8,39.5,375.2,38.7,373.7z"/>
		<path class="st2" d="M38.7,373.7h-0.8c0.8,1.6,1.7,3.1,2.5,4.6h0.8C40.3,376.8,39.5,375.2,38.7,373.7L38.7,373.7z"/>
	</g>
	<g>
		<path class="st1" d="M10.6,280.8c-0.1-1.3-0.2-2.6-0.3-3.9h0.1C10.5,278.2,10.6,279.5,10.6,280.8L10.6,280.8z"/>
		<path class="st2" d="M10.7,276.5H9.9c0.1,1.5,0.2,3.1,0.4,4.6h0.8C11,279.6,10.8,278,10.7,276.5L10.7,276.5z"/>
	</g>
	<g>
		<path class="st1" d="M9.7,266.9c0-1.3-0.1-2.6-0.1-3.9h0.1C9.7,264.3,9.8,265.6,9.7,266.9L9.7,266.9z"/>
		<path class="st2" d="M10.1,262.6H9.3c0,1.5,0.1,3.1,0.1,4.6h0.8C10.1,265.7,10.1,264.2,10.1,262.6L10.1,262.6z"/>
	</g>
	<g>
		<path class="st1" d="M9.6,262.2c0-1.3,0-2.6,0-3.9h0.1C9.7,259.7,9.7,260.9,9.6,262.2L9.6,262.2z"/>
		<path class="st2" d="M10,258H9.2c0,1.5,0,3.1,0.1,4.6h0.8C10,261.1,10,259.5,10,258L10,258z"/>
	</g>
	<g>
		<path class="st1" d="M11.1,285.4c-0.1-1.3-0.3-2.6-0.4-3.9h0.1C10.9,282.8,11,284.1,11.1,285.4L11.1,285.4z"/>
		<path class="st2" d="M11.1,281.1h-0.8c0.1,1.5,0.3,3.1,0.5,4.6h0.8C11.4,284.2,11.3,282.7,11.1,281.1L11.1,281.1z"/>
	</g>
	<g>
		<path class="st1" d="M12.3,294.6c-0.2-1.3-0.4-2.6-0.5-3.9h0.1C12,292.1,12.2,293.3,12.3,294.6L12.3,294.6z"/>
		<path class="st2" d="M12.2,290.4h-0.8c0.2,1.5,0.4,3.1,0.7,4.6h0.8C12.6,293.5,12.4,291.9,12.2,290.4L12.2,290.4z"/>
	</g>
	<g>
		<path class="st1" d="M13.9,303.9c-0.2-1.3-0.5-2.6-0.7-3.9l0,0C13.4,301.3,13.7,302.6,13.9,303.9L13.9,303.9z"/>
		<path class="st2" d="M13.5,299.6h-0.8c0.3,1.5,0.5,3.1,0.8,4.6h0.8C14.1,302.7,13.8,301.2,13.5,299.6L13.5,299.6z"/>
	</g>
	<g>
		<path class="st1" d="M14.8,308.5c-0.3-1.3-0.5-2.6-0.8-3.9l0,0C14.3,305.9,14.6,307.2,14.8,308.5L14.8,308.5z"/>
		<path class="st2" d="M14.4,304.3h-0.8c0.3,1.5,0.6,3.1,0.9,4.6h0.8C15,307.4,14.7,305.8,14.4,304.3L14.4,304.3z"/>
	</g>
	<g>
		<path class="st1" d="M15.8,313.1c-0.3-1.3-0.6-2.6-0.8-3.9l0,0C15.3,310.6,15.5,311.9,15.8,313.1L15.8,313.1z"/>
		<path class="st2" d="M15.3,308.9h-0.8c0.3,1.5,0.7,3.1,1,4.6h0.8C16,312,15.6,310.4,15.3,308.9L15.3,308.9z"/>
	</g>
	<g>
		<path class="st1" d="M13.1,299.3c-0.2-1.3-0.4-2.6-0.6-3.9h0.1C12.7,296.7,12.9,298,13.1,299.3L13.1,299.3z"/>
		<path class="st2" d="M12.8,295H12c0.2,1.5,0.5,3.1,0.7,4.6h0.8C13.3,298.1,13,296.6,12.8,295L12.8,295z"/>
	</g>
	<g>
		<path class="st1" d="M16.9,317.8c-0.3-1.3-0.6-2.6-0.9-3.9l0,0C16.3,315.2,16.6,316.5,16.9,317.8L16.9,317.8z"/>
		<path class="st2" d="M16.3,313.5h-0.8c0.4,1.5,0.7,3.1,1.1,4.6h0.8C17,316.6,16.7,315.1,16.3,313.5L16.3,313.5z"/>
	</g>
	<g>
		<path class="st1" d="M11.7,290c-0.2-1.3-0.3-2.6-0.5-3.9h0.1C11.4,287.4,11.6,288.7,11.7,290L11.7,290z"/>
		<path class="st2" d="M11.6,285.8h-0.8c0.2,1.5,0.4,3.1,0.6,4.6h0.8C12,288.8,11.8,287.3,11.6,285.8L11.6,285.8z"/>
	</g>
	<g>
		<path class="st1" d="M197.1,498.6h-0.6c7.4,1.9,15,3.4,22.7,4.6h0.4C212,502.1,204.5,500.5,197.1,498.6z"/>
		<path class="st2" d="M197.1,498.6h-0.6c7.4,1.9,15,3.4,22.7,4.6h0.4C212,502.1,204.5,500.5,197.1,498.6L197.1,498.6z"/>
	</g>
	<g>
		<path class="st1" d="M130.6,470.9h-0.7c2.6,1.6,5.3,3.1,8,4.6h0.7C135.9,474,133.3,472.5,130.6,470.9z"/>
		<path class="st2" d="M130.6,470.9h-0.7c2.6,1.6,5.3,3.1,8,4.6h0.7C135.9,474,133.3,472.5,130.6,470.9L130.6,470.9z"/>
	</g>
	<g>
		<path class="st1" d="M116.4,461.6h-0.7c2.3,1.6,4.6,3.1,6.9,4.6h0.7C120.9,464.7,118.6,463.2,116.4,461.6z"/>
		<path class="st2" d="M116.4,461.6h-0.7c2.3,1.6,4.6,3.1,6.9,4.6h0.7C120.9,464.7,118.6,463.2,116.4,461.6L116.4,461.6z"/>
	</g>
	<g>
		<path class="st1" d="M123.2,466.2h-0.7c2.4,1.6,4.9,3.1,7.4,4.6h0.7C128.1,469.4,125.7,467.8,123.2,466.2z"/>
		<path class="st2" d="M123.2,466.2h-0.7c2.4,1.6,4.9,3.1,7.4,4.6h0.7C128.1,469.4,125.7,467.8,123.2,466.2L123.2,466.2z"/>
	</g>
	<g>
		<path class="st1" d="M110,457h-0.7c2.1,1.6,4.3,3.1,6.4,4.6h0.7C114.2,460.1,112.1,458.6,110,457z"/>
		<path class="st2" d="M110,457h-0.7c2.1,1.6,4.3,3.1,6.4,4.6h0.7C114.2,460.1,112.1,458.6,110,457L110,457z"/>
	</g>
	<g>
		<path class="st1" d="M93,443.1h-0.8c1.8,1.6,3.5,3.1,5.3,4.6h0.7C96.5,446.2,94.7,444.7,93,443.1z"/>
		<path class="st2" d="M93,443.1h-0.8c1.8,1.6,3.5,3.1,5.3,4.6h0.7C96.5,446.2,94.7,444.7,93,443.1L93,443.1z"/>
	</g>
	<g>
		<path class="st1" d="M98.3,447.7h-0.7c1.9,1.6,3.7,3.1,5.7,4.6h0.7C102.1,450.8,100.2,449.3,98.3,447.7z"/>
		<path class="st2" d="M98.3,447.7h-0.7c1.9,1.6,3.7,3.1,5.7,4.6h0.7C102.1,450.8,100.2,449.3,98.3,447.7L98.3,447.7z"/>
	</g>
	<g>
		<path class="st1" d="M104,452.4h-0.7c2,1.6,4,3.1,6,4.6h0.7C107.9,455.5,105.9,453.9,104,452.4z"/>
		<path class="st2" d="M104,452.4h-0.7c2,1.6,4,3.1,6,4.6h0.7C107.9,455.5,105.9,453.9,104,452.4L104,452.4z"/>
	</g>
	<g>
		<path class="st1" d="M181.2,494h-0.6c5.3,1.7,10.6,3.3,16,4.6h0.6C191.7,497.3,186.4,495.7,181.2,494z"/>
		<path class="st2" d="M181.2,494h-0.6c5.3,1.7,10.6,3.3,16,4.6h0.6C191.7,497.3,186.4,495.7,181.2,494L181.2,494z"/>
	</g>
	<g>
		<path class="st1" d="M168.3,489.4h-0.7c4.3,1.7,8.6,3.2,12.9,4.6h0.6C176.8,492.6,172.5,491,168.3,489.4z"/>
		<path class="st2" d="M168.3,489.4h-0.7c4.3,1.7,8.6,3.2,12.9,4.6h0.6C176.8,492.6,172.5,491,168.3,489.4L168.3,489.4z"/>
	</g>
	<g>
		<path class="st1" d="M219.2,503.3c6.6,1,13.2,1.8,19.9,2.3c-6.6-0.5-13.1-1.3-19.5-2.3H219.2z"/>
		<path class="st2" d="M219.7,503.3h-0.4c6.6,1,13.2,1.8,19.9,2.3C232.6,505,226.1,504.3,219.7,503.3L219.7,503.3z"/>
	</g>
	<g>
		<path class="st1" d="M9.6,257.6c0-1.3,0-2.6,0-3.9h0.1C9.7,255,9.7,256.3,9.6,257.6L9.6,257.6z"/>
		<path class="st2" d="M10.1,253.4H9.3c0,1.4,0,2.9,0,4.3c0,0.1,0,0.2,0,0.3h0.8c0-0.1,0-0.2,0-0.2C10,256.3,10,254.8,10.1,253.4
			L10.1,253.4z"/>
	</g>
	<g>
		<path class="st1" d="M138.7,475.5H138c2.9,1.6,5.8,3.1,8.8,4.6h0.7C144.5,478.6,141.6,477.1,138.7,475.5z"/>
		<path class="st2" d="M138.7,475.5H138c2.9,1.6,5.8,3.1,8.8,4.6h0.7C144.5,478.6,141.6,477.1,138.7,475.5L138.7,475.5z"/>
	</g>
	<g>
		<path class="st1" d="M157.2,484.8h-0.7c3.6,1.6,7.3,3.2,11.1,4.6h0.7C164.5,487.9,160.9,486.4,157.2,484.8z"/>
		<path class="st2" d="M157.2,484.8h-0.7c3.6,1.6,7.3,3.2,11.1,4.6h0.7C164.5,487.9,160.9,486.4,157.2,484.8L157.2,484.8z"/>
	</g>
	<g>
		<path class="st1" d="M88,438.5h-0.8c1.7,1.6,3.3,3.1,5,4.6H93C91.3,441.6,89.6,440,88,438.5z"/>
		<path class="st2" d="M88,438.5h-0.8c1.7,1.6,3.3,3.1,5,4.6H93C91.3,441.6,89.6,440,88,438.5L88,438.5z"/>
	</g>
	<g>
		<path class="st1" d="M52.5,396.8h-0.8c1.1,1.6,2.1,3.1,3.2,4.6h0.8C54.7,399.9,53.6,398.4,52.5,396.8z"/>
		<path class="st2" d="M52.5,396.8h-0.8c1.1,1.6,2.1,3.1,3.2,4.6h0.8C54.7,399.9,53.6,398.4,52.5,396.8L52.5,396.8z"/>
	</g>
	<g>
		<path class="st1" d="M49.5,392.2h-0.8c1,1.6,2,3.1,3.1,4.6h0.8C51.5,395.3,50.5,393.8,49.5,392.2z"/>
		<path class="st2" d="M49.5,392.2h-0.8c1,1.6,2,3.1,3.1,4.6h0.8C51.5,395.3,50.5,393.8,49.5,392.2L49.5,392.2z"/>
	</g>
	<g>
		<path class="st1" d="M41.2,378.3h-0.8c0.9,1.6,1.7,3.1,2.6,4.6h0.8C42.9,381.4,42,379.9,41.2,378.3z"/>
		<path class="st2" d="M41.2,378.3h-0.8c0.9,1.6,1.7,3.1,2.6,4.6h0.8C42.9,381.4,42,379.9,41.2,378.3L41.2,378.3z"/>
	</g>
	<g>
		<path class="st1" d="M46.6,387.6h-0.8c1,1.6,1.9,3.1,2.9,4.6h0.8C48.5,390.7,47.5,389.1,46.6,387.6z"/>
		<path class="st2" d="M46.6,387.6h-0.8c1,1.6,1.9,3.1,2.9,4.6h0.8C48.5,390.7,47.5,389.1,46.6,387.6L46.6,387.6z"/>
	</g>
	<g>
		<path class="st1" d="M59.1,406.1h-0.7c1.2,1.6,2.3,3.1,3.5,4.6h0.8C61.5,409.2,60.3,407.6,59.1,406.1z"/>
		<path class="st2" d="M59.1,406.1h-0.7c1.2,1.6,2.3,3.1,3.5,4.6h0.8C61.5,409.2,60.3,407.6,59.1,406.1L59.1,406.1z"/>
	</g>
	<g>
		<path class="st1" d="M43.8,382.9H43c0.9,1.6,1.8,3.1,2.8,4.6h0.8C45.6,386,44.7,384.5,43.8,382.9z"/>
		<path class="st2" d="M43.8,382.9H43c0.9,1.6,1.8,3.1,2.8,4.6h0.8C45.6,386,44.7,384.5,43.8,382.9L43.8,382.9z"/>
	</g>
	<g>
		<path class="st1" d="M55.8,401.5H55c1.1,1.6,2.2,3.1,3.4,4.6h0.8C58,404.6,56.9,403,55.8,401.5z"/>
		<path class="st2" d="M55.8,401.5H55c1.1,1.6,2.2,3.1,3.4,4.6h0.8C58,404.6,56.9,403,55.8,401.5L55.8,401.5z"/>
	</g>
	<g>
		<path class="st1" d="M74.3,424.6h-0.8c1.4,1.6,2.8,3.1,4.3,4.6h0.8C77.2,427.7,75.8,426.2,74.3,424.6z"/>
		<path class="st2" d="M74.3,424.6h-0.8c1.4,1.6,2.8,3.1,4.3,4.6h0.8C77.2,427.7,75.8,426.2,74.3,424.6L74.3,424.6z"/>
	</g>
	<g>
		<path class="st1" d="M62.7,410.7h-0.8c1.2,1.6,2.5,3.1,3.7,4.6h0.8C65.1,413.8,63.9,412.3,62.7,410.7z"/>
		<path class="st2" d="M62.7,410.7h-0.8c1.2,1.6,2.5,3.1,3.7,4.6h0.8C65.1,413.8,63.9,412.3,62.7,410.7L62.7,410.7z"/>
	</g>
	<g>
		<path class="st1" d="M83.2,433.9h-0.8c1.6,1.6,3.2,3.1,4.8,4.6H88C86.3,437,84.7,435.4,83.2,433.9z"/>
		<path class="st2" d="M83.2,433.9h-0.8c1.6,1.6,3.2,3.1,4.8,4.6H88C86.3,437,84.7,435.4,83.2,433.9L83.2,433.9z"/>
	</g>
	<g>
		<path class="st1" d="M78.6,429.2h-0.8c1.5,1.6,3,3.1,4.5,4.6h0.8C81.6,432.3,80.1,430.8,78.6,429.2z"/>
		<path class="st2" d="M78.6,429.2h-0.8c1.5,1.6,3,3.1,4.5,4.6h0.8C81.6,432.3,80.1,430.8,78.6,429.2L78.6,429.2z"/>
	</g>
	<g>
		<path class="st1" d="M66.4,415.3h-0.8c1.3,1.6,2.6,3.1,3.9,4.6h0.8C68.9,418.4,67.6,416.9,66.4,415.3z"/>
		<path class="st2" d="M66.4,415.3h-0.8c1.3,1.6,2.6,3.1,3.9,4.6h0.8C68.9,418.4,67.6,416.9,66.4,415.3L66.4,415.3z"/>
	</g>
	<g>
		<path class="st1" d="M70.3,420h-0.8c1.3,1.6,2.7,3.1,4.1,4.6h0.8C73,423.1,71.6,421.5,70.3,420z"/>
		<path class="st2" d="M70.3,420h-0.8c1.3,1.6,2.7,3.1,4.1,4.6h0.8C73,423.1,71.6,421.5,70.3,420L70.3,420z"/>
	</g>
	<g>
		<path class="st1" d="M147.4,480.1h-0.7c3.2,1.6,6.5,3.2,9.8,4.6h0.7C153.9,483.3,150.7,481.7,147.4,480.1z"/>
		<path class="st2" d="M147.4,480.1h-0.7c3.2,1.6,6.5,3.2,9.8,4.6h0.7C153.9,483.3,150.7,481.7,147.4,480.1L147.4,480.1z"/>
	</g>
	<g>
		<path class="st1" d="M87.4,77.5h-0.9c-1.6,1.5-3.2,3.1-4.7,4.6h0.9C84.3,80.6,85.8,79,87.4,77.5z"/>
		<path class="st2" d="M87.4,77.5h-0.9c-1.6,1.5-3.2,3.1-4.7,4.6h0.9C84.3,80.6,85.8,79,87.4,77.5L87.4,77.5z"/>
	</g>
	<g>
		<path class="st1" d="M82.7,82.1h-0.9c-1.5,1.5-3,3.1-4.5,4.6h0.9C79.7,85.2,81.2,83.6,82.7,82.1z"/>
		<path class="st2" d="M82.7,82.1h-0.9c-1.5,1.5-3,3.1-4.5,4.6h0.9C79.7,85.2,81.2,83.6,82.7,82.1L82.7,82.1z"/>
	</g>
	<g>
		<path class="st1" d="M78.2,86.7h-0.9c-1.4,1.5-2.9,3.1-4.3,4.6h0.9C75.3,89.8,76.7,88.3,78.2,86.7z"/>
		<path class="st2" d="M78.2,86.7h-0.9c-1.4,1.5-2.9,3.1-4.3,4.6h0.9C75.3,89.8,76.7,88.3,78.2,86.7L78.2,86.7z"/>
	</g>
	<g>
		<path class="st1" d="M97.7,68.2h-0.9c-1.8,1.5-3.5,3.1-5.3,4.6h0.9C94.2,71.3,96,69.8,97.7,68.2z"/>
		<path class="st2" d="M97.7,68.2h-0.9c-1.8,1.5-3.5,3.1-5.3,4.6h0.9C94.2,71.3,96,69.8,97.7,68.2L97.7,68.2z"/>
	</g>
	<g>
		<path class="st1" d="M73.9,91.4H73c-1.4,1.5-2.7,3.1-4.1,4.6h0.9C71.2,94.4,72.5,92.9,73.9,91.4z"/>
		<path class="st2" d="M73.9,91.4H73c-1.4,1.5-2.7,3.1-4.1,4.6h0.9C71.2,94.4,72.5,92.9,73.9,91.4L73.9,91.4z"/>
	</g>
	<g>
		<path class="st1" d="M103.4,63.6h-0.9c-1.9,1.5-3.8,3.1-5.6,4.6h0.9C99.6,66.7,101.5,65.1,103.4,63.6z"/>
		<path class="st2" d="M103.4,63.6h-0.9c-1.9,1.5-3.8,3.1-5.6,4.6h0.9C99.6,66.7,101.5,65.1,103.4,63.6L103.4,63.6z"/>
	</g>
	<g>
		<path class="st1" d="M92.5,72.9h-0.9c-1.7,1.5-3.4,3.1-5,4.6h0.9C89.1,75.9,90.8,74.4,92.5,72.9z"/>
		<path class="st2" d="M92.5,72.9h-0.9c-1.7,1.5-3.4,3.1-5,4.6h0.9C89.1,75.9,90.8,74.4,92.5,72.9L92.5,72.9z"/>
	</g>
	<g>
		<path class="st1" d="M55.4,114.5h-0.9c-1.1,1.5-2.1,3.1-3.2,4.6h0.9C53.3,117.6,54.3,116,55.4,114.5z"/>
		<path class="st2" d="M55.4,114.5h-0.9c-1.1,1.5-2.1,3.1-3.2,4.6h0.9C53.3,117.6,54.3,116,55.4,114.5L55.4,114.5z"/>
	</g>
	<g>
		<path class="st1" d="M69.8,96h-0.9c-1.3,1.5-2.6,3.1-3.9,4.6h0.9C67.2,99.1,68.5,97.5,69.8,96z"/>
		<path class="st2" d="M69.8,96h-0.9c-1.3,1.5-2.6,3.1-3.9,4.6h0.9C67.2,99.1,68.5,97.5,69.8,96L69.8,96z"/>
	</g>
	<g>
		<path class="st1" d="M52.2,119.1h-0.8c-1,1.5-2,3.1-3,4.6h0.9C50.2,122.2,51.2,120.7,52.2,119.1z"/>
		<path class="st2" d="M52.2,119.1h-0.8c-1,1.5-2,3.1-3,4.6h0.9C50.2,122.2,51.2,120.7,52.2,119.1L52.2,119.1z"/>
	</g>
	<g>
		<path class="st1" d="M49.2,123.8h-0.9c-1,1.5-1.9,3.1-2.9,4.6h0.9C47.2,126.8,48.2,125.3,49.2,123.8z"/>
		<path class="st2" d="M49.2,123.8h-0.9c-1,1.5-1.9,3.1-2.9,4.6h0.9C47.2,126.8,48.2,125.3,49.2,123.8L49.2,123.8z"/>
	</g>
	<g>
		<path class="st1" d="M62.3,105.3h-0.9c-1.2,1.5-2.4,3.1-3.5,4.6h0.9C59.9,108.3,61.1,106.8,62.3,105.3z"/>
		<path class="st2" d="M62.3,105.3h-0.9c-1.2,1.5-2.4,3.1-3.5,4.6h0.9C59.9,108.3,61.1,106.8,62.3,105.3L62.3,105.3z"/>
	</g>
	<g>
		<path class="st1" d="M66,100.6h-0.9c-1.2,1.5-2.5,3.1-3.7,4.6h0.9C63.5,103.7,64.7,102.2,66,100.6z"/>
		<path class="st2" d="M66,100.6h-0.9c-1.2,1.5-2.5,3.1-3.7,4.6h0.9C63.5,103.7,64.7,102.2,66,100.6L66,100.6z"/>
	</g>
	<g>
		<path class="st1" d="M58.8,109.9h-0.9c-1.1,1.5-2.2,3.1-3.3,4.6h0.9C56.5,113,57.6,111.4,58.8,109.9z"/>
		<path class="st2" d="M58.8,109.9h-0.9c-1.1,1.5-2.2,3.1-3.3,4.6h0.9C56.5,113,57.6,111.4,58.8,109.9L58.8,109.9z"/>
	</g>
	<g>
		<path class="st1" d="M179.7,22h-1c-4.3,1.4-8.5,3-12.7,4.6h1C171.2,24.9,175.5,23.4,179.7,22z"/>
		<path class="st2" d="M179.7,22h-1c-4.3,1.4-8.5,3-12.7,4.6h1C171.2,24.9,175.5,23.4,179.7,22L179.7,22z"/>
	</g>
	<g>
		<path class="st1" d="M195.3,17.3h-1c-5.2,1.4-10.4,2.9-15.5,4.6h1C184.8,20.2,190,18.7,195.3,17.3z"/>
		<path class="st2" d="M195.3,17.3h-1c-5.2,1.4-10.4,2.9-15.5,4.6h1C184.8,20.2,190,18.7,195.3,17.3L195.3,17.3z"/>
	</g>
	<g>
		<path class="st1" d="M156.1,31.2h-1c-3.3,1.5-6.5,3-9.6,4.6h0.9C149.7,34.2,152.9,32.7,156.1,31.2z"/>
		<path class="st2" d="M156.1,31.2h-1c-3.3,1.5-6.5,3-9.6,4.6h0.9C149.7,34.2,152.9,32.7,156.1,31.2L156.1,31.2z"/>
	</g>
	<g>
		<path class="st1" d="M167.1,26.6h-1c-3.7,1.5-7.3,3-10.9,4.6h1C159.7,29.6,163.4,28,167.1,26.6z"/>
		<path class="st2" d="M167.1,26.6h-1c-3.7,1.5-7.3,3-10.9,4.6h1C159.7,29.6,163.4,28,167.1,26.6L167.1,26.6z"/>
	</g>
	<g>
		<path class="st1" d="M216.7,12.7h-1.2c-7.2,1.2-14.3,2.8-21.3,4.6h1C202.3,15.5,209.5,13.9,216.7,12.7z"/>
		<path class="st2" d="M216.7,12.7h-1.2c-7.2,1.2-14.3,2.8-21.3,4.6h1C202.3,15.5,209.5,13.9,216.7,12.7L216.7,12.7z"/>
	</g>
	<g>
		<path class="st1" d="M258.6,9.2c6.3,0,12.5,0.2,18.6,0.7c-6.4-0.5-12.9-0.7-19.4-0.7c-14.4,0-28.5,1.2-42.2,3.6h1.2
			C230.3,10.4,244.3,9.2,258.6,9.2z"/>
		<path class="st2" d="M257.8,9.1c-14.4,0-28.5,1.2-42.2,3.6h1.2c13.6-2.3,27.6-3.5,41.8-3.5c6.3,0,12.5,0.2,18.6,0.7
			C270.8,9.4,264.3,9.1,257.8,9.1L257.8,9.1z"/>
	</g>
	<g>
		<path class="st1" d="M109.3,59h-0.9c-2,1.5-4,3.1-6,4.6h0.9C105.3,62,107.3,60.5,109.3,59z"/>
		<path class="st2" d="M109.3,59h-0.9c-2,1.5-4,3.1-6,4.6h0.9C105.3,62,107.3,60.5,109.3,59L109.3,59z"/>
	</g>
	<g>
		<path class="st1" d="M115.7,54.4h-0.9c-2.1,1.5-4.3,3.1-6.4,4.6h0.9C111.4,57.4,113.5,55.9,115.7,54.4z"/>
		<path class="st2" d="M115.7,54.4h-0.9c-2.1,1.5-4.3,3.1-6.4,4.6h0.9C111.4,57.4,113.5,55.9,115.7,54.4L115.7,54.4z"/>
	</g>
	<g>
		<path class="st1" d="M122.5,49.7h-0.9c-2.3,1.5-4.6,3-6.8,4.6h0.9C117.9,52.8,120.2,51.2,122.5,49.7z"/>
		<path class="st2" d="M122.5,49.7h-0.9c-2.3,1.5-4.6,3-6.8,4.6h0.9C117.9,52.8,120.2,51.2,122.5,49.7L122.5,49.7z"/>
	</g>
	<g>
		<path class="st1" d="M146.5,35.8h-0.9c-2.9,1.5-5.8,3-8.7,4.6h0.9C140.7,38.9,143.6,37.3,146.5,35.8z"/>
		<path class="st2" d="M146.5,35.8h-0.9c-2.9,1.5-5.8,3-8.7,4.6h0.9C140.7,38.9,143.6,37.3,146.5,35.8L146.5,35.8z"/>
	</g>
	<g>
		<path class="st1" d="M129.8,45.1h-0.9c-2.5,1.5-4.9,3-7.3,4.6h0.9C124.9,48.1,127.4,46.6,129.8,45.1z"/>
		<path class="st2" d="M129.8,45.1h-0.9c-2.5,1.5-4.9,3-7.3,4.6h0.9C124.9,48.1,127.4,46.6,129.8,45.1L129.8,45.1z"/>
	</g>
	<g>
		<path class="st1" d="M137.8,40.5h-0.9c-2.7,1.5-5.3,3-7.9,4.6h0.9C132.4,43.5,135.1,42,137.8,40.5z"/>
		<path class="st2" d="M137.8,40.5h-0.9c-2.7,1.5-5.3,3-7.9,4.6h0.9C132.4,43.5,135.1,42,137.8,40.5L137.8,40.5z"/>
	</g>
	<g>
		<path class="st1" d="M25.6,169.7c0.5-1.3,1-2.6,1.5-3.9l0,0C26.7,167.1,26.2,168.4,25.6,169.7L25.6,169.7z"/>
		<path class="st2" d="M27.7,165.4h-0.8c-0.6,1.5-1.2,3.1-1.8,4.6h0.8C26.5,168.5,27.1,167,27.7,165.4L27.7,165.4z"/>
	</g>
	<g>
		<path class="st1" d="M13.9,211.3c0.2-1.3,0.5-2.6,0.8-3.9h0.1C14.5,208.7,14.2,210,13.9,211.3L13.9,211.3z"/>
		<path class="st2" d="M15.2,207.1h-0.8c-0.3,1.5-0.6,3.1-0.9,4.6h0.8C14.6,210.2,14.9,208.6,15.2,207.1L15.2,207.1z"/>
	</g>
	<g>
		<path class="st1" d="M18.1,192.8c0.4-1.3,0.7-2.6,1.1-3.9h0.1C18.9,190.2,18.6,191.5,18.1,192.8L18.1,192.8z"/>
		<path class="st2" d="M19.8,188.6H19c-0.4,1.5-0.9,3.1-1.3,4.6h0.8C18.9,191.6,19.3,190.1,19.8,188.6L19.8,188.6z"/>
	</g>
	<g>
		<path class="st1" d="M14.8,206.7c0.3-1.3,0.6-2.6,0.8-3.9h0.1C15.4,204.1,15.2,205.4,14.8,206.7L14.8,206.7z"/>
		<path class="st2" d="M16.2,202.4h-0.8c-0.3,1.5-0.7,3.1-1,4.6h0.8C15.5,205.5,15.9,204,16.2,202.4L16.2,202.4z"/>
	</g>
	<g>
		<path class="st1" d="M16.9,197.4c0.3-1.3,0.7-2.6,1-3.9H18C17.7,194.9,17.3,196.1,16.9,197.4L16.9,197.4z"/>
		<path class="st2" d="M18.5,193.2h-0.8c-0.4,1.5-0.8,3.1-1.2,4.6h0.8C17.7,196.3,18.1,194.7,18.5,193.2L18.5,193.2z"/>
	</g>
	<g>
		<path class="st1" d="M12.3,220.6c0.2-1.3,0.4-2.6,0.6-3.9H13C12.8,218,12.6,219.3,12.3,220.6L12.3,220.6z"/>
		<path class="st2" d="M13.5,216.3h-0.8c-0.3,1.5-0.5,3.1-0.7,4.6h0.8C13,219.4,13.2,217.9,13.5,216.3L13.5,216.3z"/>
	</g>
	<g>
		<path class="st1" d="M15.8,202.1c0.3-1.3,0.6-2.6,0.9-3.9h0.1C16.5,199.5,16.2,200.8,15.8,202.1L15.8,202.1z"/>
		<path class="st2" d="M17.3,197.8h-0.8c-0.4,1.5-0.7,3.1-1.1,4.6h0.8C16.6,200.9,16.9,199.4,17.3,197.8L17.3,197.8z"/>
	</g>
	<g>
		<path class="st1" d="M13.1,216c0.2-1.3,0.5-2.6,0.7-3.9h0.1C13.6,213.4,13.4,214.7,13.1,216L13.1,216z"/>
		<path class="st2" d="M14.3,211.7h-0.8c-0.3,1.5-0.6,3.1-0.8,4.6h0.8C13.7,214.8,14,213.2,14.3,211.7L14.3,211.7z"/>
	</g>
	<g>
		<path class="st1" d="M10,243.7c0.1-1.3,0.2-2.6,0.2-3.9h0.1C10.2,241.1,10.1,242.4,10,243.7L10,243.7z"/>
		<path class="st2" d="M10.7,239.5H9.9c-0.1,1.5-0.2,3.1-0.3,4.6h0.8C10.5,242.6,10.6,241,10.7,239.5L10.7,239.5z"/>
	</g>
	<g>
		<path class="st1" d="M46.3,128.4h-0.9c-0.9,1.5-1.9,3.1-2.8,4.6h0.9C44.4,131.5,45.4,129.9,46.3,128.4z"/>
		<path class="st2" d="M46.3,128.4h-0.9c-0.9,1.5-1.9,3.1-2.8,4.6h0.9C44.4,131.5,45.4,129.9,46.3,128.4L46.3,128.4z"/>
	</g>
	<g>
		<path class="st1" d="M10.3,239.1c0.1-1.3,0.2-2.6,0.3-3.9h0.1C10.5,236.5,10.4,237.8,10.3,239.1L10.3,239.1z"/>
		<path class="st2" d="M11.1,234.8h-0.8c-0.1,1.5-0.3,3.1-0.4,4.6h0.8C10.8,237.9,10.9,236.4,11.1,234.8L11.1,234.8z"/>
	</g>
	<g>
		<path class="st1" d="M10.7,234.5c0.1-1.3,0.3-2.6,0.4-3.9h0.1C11,231.9,10.8,233.2,10.7,234.5L10.7,234.5z"/>
		<path class="st2" d="M11.5,230.2h-0.8c-0.2,1.5-0.3,3.1-0.5,4.6H11C11.2,233.3,11.4,231.8,11.5,230.2L11.5,230.2z"/>
	</g>
	<g>
		<path class="st1" d="M11.7,225.2c0.2-1.3,0.4-2.6,0.5-3.9h0.1C12.1,222.6,11.9,223.9,11.7,225.2L11.7,225.2z"/>
		<path class="st2" d="M12.7,221h-0.8c-0.2,1.5-0.4,3.1-0.6,4.6h0.8C12.3,224,12.5,222.5,12.7,221L12.7,221z"/>
	</g>
	<g>
		<path class="st1" d="M11.1,229.8c0.1-1.3,0.3-2.6,0.5-3.9h0.1C11.5,227.3,11.3,228.5,11.1,229.8L11.1,229.8z"/>
		<path class="st2" d="M12.1,225.6h-0.8c-0.2,1.5-0.4,3.1-0.6,4.6h0.8C11.7,228.7,11.9,227.1,12.1,225.6L12.1,225.6z"/>
	</g>
	<g>
		<path class="st1" d="M9.8,248.4c0-1.3,0.1-2.6,0.2-3.9h0.1C9.9,245.8,9.9,247.1,9.8,248.4L9.8,248.4z"/>
		<path class="st2" d="M10.4,244.1H9.6c-0.1,1.5-0.2,3.1-0.2,4.6h0.8C10.2,247.2,10.3,245.6,10.4,244.1L10.4,244.1z"/>
	</g>
	<g>
		<path class="st1" d="M33.5,151.2c0.6-1.3,1.2-2.6,1.9-3.9l0,0C34.8,148.6,34.2,149.9,33.5,151.2L33.5,151.2z"/>
		<path class="st2" d="M36,146.9h-0.8c-0.8,1.5-1.5,3.1-2.2,4.6h0.8C34.5,150,35.3,148.4,36,146.9L36,146.9z"/>
	</g>
	<g>
		<path class="st1" d="M35.8,146.5c0.7-1.3,1.3-2.6,2-3.9l0,0C37.1,143.9,36.5,145.2,35.8,146.5L35.8,146.5z"/>
		<path class="st2" d="M38.4,142.3h-0.9c-0.8,1.5-1.6,3.1-2.4,4.6h0.8C36.8,145.4,37.6,143.8,38.4,142.3L38.4,142.3z"/>
	</g>
	<g>
		<path class="st1" d="M31.4,155.8c0.6-1.3,1.2-2.6,1.8-3.9l0,0C32.6,153.2,32,154.5,31.4,155.8L31.4,155.8z"/>
		<path class="st2" d="M33.8,151.5H33c-0.7,1.5-1.4,3.1-2.1,4.6h0.8C32.4,154.6,33.1,153.1,33.8,151.5L33.8,151.5z"/>
	</g>
	<g>
		<path class="st1" d="M38.2,141.9c0.2-0.4,0.4-0.8,0.7-1.2C38.6,141.1,38.4,141.5,38.2,141.9L38.2,141.9z"/>
		<path class="st2" d="M40.9,137.7H40c-0.8,1.5-1.7,3.1-2.5,4.6h0.9C39.2,140.7,40.1,139.2,40.9,137.7L40.9,137.7z"/>
	</g>
	<g>
		<path class="st1" d="M29.4,160.4c0.6-1.3,1.1-2.6,1.7-3.9l0,0C30.5,157.8,29.9,159.1,29.4,160.4L29.4,160.4z"/>
		<path class="st2" d="M31.7,156.2h-0.8c-0.7,1.5-1.4,3.1-2,4.6h0.8C30.3,159.2,31,157.7,31.7,156.2L31.7,156.2z"/>
	</g>
	<g>
		<path class="st1" d="M43.5,133h-0.9c-0.9,1.5-1.8,3.1-2.6,4.6h0.9C41.8,136.1,42.6,134.6,43.5,133z"/>
		<path class="st2" d="M43.5,133h-0.9c-0.9,1.5-1.8,3.1-2.6,4.6h0.9C41.8,136.1,42.6,134.6,43.5,133L43.5,133z"/>
	</g>
	<g>
		<path class="st1" d="M23.9,174.3c0.5-1.3,0.9-2.6,1.4-3.9l0,0C24.9,171.7,24.4,173,23.9,174.3L23.9,174.3z"/>
		<path class="st2" d="M25.9,170.1h-0.8c-0.6,1.5-1.1,3.1-1.7,4.6h0.8C24.8,173.1,25.4,171.6,25.9,170.1L25.9,170.1z"/>
	</g>
	<g>
		<path class="st1" d="M22.3,178.9c0.4-1.3,0.9-2.6,1.3-3.9l0,0C23.3,176.3,22.8,177.6,22.3,178.9L22.3,178.9z"/>
		<path class="st2" d="M24.2,174.7h-0.8c-0.5,1.5-1.1,3.1-1.6,4.6h0.8C23.2,177.8,23.7,176.2,24.2,174.7L24.2,174.7z"/>
	</g>
	<g>
		<path class="st1" d="M20.8,183.6c0.4-1.3,0.8-2.6,1.3-3.9l0,0C21.7,181,21.3,182.3,20.8,183.6L20.8,183.6z"/>
		<path class="st2" d="M22.7,179.3h-0.8c-0.5,1.5-1,3.1-1.5,4.6h0.8C21.6,182.4,22.1,180.8,22.7,179.3L22.7,179.3z"/>
	</g>
	<g>
		<path class="st1" d="M27.5,165c0.5-1.3,1.1-2.6,1.6-3.9l0,0C28.5,162.5,28,163.8,27.5,165L27.5,165z"/>
		<path class="st2" d="M29.6,160.8h-0.8c-0.6,1.5-1.3,3.1-1.9,4.6h0.8C28.4,163.9,29,162.3,29.6,160.8L29.6,160.8z"/>
	</g>
	<g>
		<path class="st1" d="M9.6,253c0-1.3,0.1-2.6,0.1-3.9h0.1C9.8,250.4,9.7,251.7,9.6,253L9.6,253z"/>
		<path class="st2" d="M10.2,248.7H9.4c-0.1,1.5-0.1,3.1-0.1,4.6h0.8C10.1,251.8,10.1,250.3,10.2,248.7L10.2,248.7z"/>
	</g>
	<g>
		<path class="st1" d="M19.4,188.2c0.4-1.3,0.8-2.6,1.2-3.9h0.1C20.3,185.6,19.9,186.9,19.4,188.2L19.4,188.2z"/>
		<path class="st2" d="M21.2,183.9h-0.8c-0.5,1.5-0.9,3.1-1.4,4.6h0.8C20.2,187,20.7,185.5,21.2,183.9L21.2,183.9z"/>
	</g>
	<g>
		<path class="st1" d="M300.4,12.7c-7.6-1.3-15.4-2.2-23.2-2.8c7.7,0.6,15.3,1.5,22.8,2.8H300.4z"/>
		<path class="st2" d="M277.2,9.9c7.7,0.6,15.3,1.5,22.8,2.8h0.5C292.8,11.4,285,10.5,277.2,9.9L277.2,9.9z"/>
	</g>
	<g>
		<path class="st1" d="M486.7,160.8h0.8c-0.7-1.6-1.3-3.1-2-4.6h-0.8C485.4,157.7,486.1,159.2,486.7,160.8z"/>
		<path class="st2" d="M485.5,156.2h-0.8c0.7,1.5,1.4,3.1,2,4.6h0.8C486.9,159.2,486.2,157.7,485.5,156.2L485.5,156.2z"/>
	</g>
	<g>
		<path class="st1" d="M498.2,192.8c-0.3-1.3-0.7-2.6-1.1-3.9l0,0C497.5,190.2,497.8,191.5,498.2,192.8L498.2,192.8z"/>
		<path class="st2" d="M497.4,188.6h-0.8c0.4,1.5,0.9,3.1,1.3,4.6h0.8C498.3,191.6,497.8,190.1,497.4,188.6L497.4,188.6z"/>
	</g>
	<g>
		<path class="st1" d="M496.9,188.2c-0.4-1.3-0.8-2.6-1.2-3.9l0,0C496.1,185.6,496.5,186.9,496.9,188.2L496.9,188.2z"/>
		<path class="st2" d="M496,183.9h-0.8c0.5,1.5,0.9,3.1,1.4,4.6h0.8C496.9,187,496.5,185.5,496,183.9L496,183.9z"/>
	</g>
	<g>
		<path class="st1" d="M495.5,183.6c-0.4-1.3-0.8-2.6-1.2-3.9l0,0C494.7,181,495.1,182.3,495.5,183.6L495.5,183.6z"/>
		<path class="st2" d="M494.5,179.3h-0.8c0.5,1.5,1,3.1,1.5,4.6h0.8C495.5,182.4,495,180.8,494.5,179.3L494.5,179.3z"/>
	</g>
	<g>
		<path class="st1" d="M499.4,197.4c-0.3-1.3-0.7-2.6-1-3.9l0,0C498.7,194.9,499.1,196.1,499.4,197.4L499.4,197.4z"/>
		<path class="st2" d="M498.7,193.2h-0.8c0.4,1.5,0.8,3.1,1.2,4.6h0.8C499.5,196.3,499.1,194.7,498.7,193.2L498.7,193.2z"/>
	</g>
	<g>
		<path class="st1" d="M494,178.9c-0.4-1.3-0.9-2.6-1.3-3.9l0,0C493.1,176.3,493.6,177.6,494,178.9L494,178.9z"/>
		<path class="st2" d="M492.9,174.7h-0.8c0.5,1.5,1.1,3.1,1.6,4.6h0.8C494,177.8,493.5,176.2,492.9,174.7L492.9,174.7z"/>
	</g>
	<g>
		<path class="st1" d="M478,142.3h0.8c-0.8-1.6-1.6-3.1-2.5-4.6h-0.8C476.3,139.2,477.1,140.7,478,142.3z"/>
		<path class="st2" d="M476.3,137.7h-0.8c0.8,1.5,1.7,3.1,2.5,4.6h0.8C477.9,140.7,477.1,139.2,476.3,137.7L476.3,137.7z"/>
	</g>
	<g>
		<path class="st1" d="M480.3,146.9h0.8c-0.8-1.6-1.6-3.1-2.4-4.6h-0.8C478.8,143.8,479.6,145.4,480.3,146.9z"/>
		<path class="st2" d="M478.8,142.3H478c0.8,1.5,1.6,3.1,2.4,4.6h0.8C480.3,145.4,479.6,143.8,478.8,142.3L478.8,142.3z"/>
	</g>
	<g>
		<path class="st1" d="M482.6,151.5h0.8c-0.7-1.6-1.5-3.1-2.2-4.6h-0.8C481.1,148.4,481.8,150,482.6,151.5z"/>
		<path class="st2" d="M481.1,146.9h-0.8c0.8,1.5,1.5,3.1,2.2,4.6h0.8C482.6,150,481.9,148.4,481.1,146.9L481.1,146.9z"/>
	</g>
	<g>
		<path class="st1" d="M501.5,206.7c-0.3-1.3-0.6-2.6-0.8-3.9l0,0C501,204.1,501.2,205.4,501.5,206.7L501.5,206.7z"/>
		<path class="st2" d="M501,202.4h-0.8c0.3,1.5,0.7,3.1,1,4.6h0.8C501.7,205.5,501.3,204,501,202.4L501,202.4z"/>
	</g>
	<g>
		<path class="st1" d="M492.4,174.3c0-0.1-0.1-0.2-0.1-0.3C492.3,174.1,492.4,174.2,492.4,174.3L492.4,174.3z"/>
		<path class="st2" d="M491.2,170.1h-0.8c0.6,1.5,1.1,3.1,1.7,4.6h0.8C492.4,173.1,491.8,171.6,491.2,170.1L491.2,170.1z"/>
	</g>
	<g>
		<path class="st1" d="M484.7,156.2h0.8c-0.7-1.6-1.4-3.1-2.1-4.6h-0.8C483.3,153.1,484,154.6,484.7,156.2z"/>
		<path class="st2" d="M483.4,151.5h-0.8c0.7,1.5,1.4,3.1,2.1,4.6h0.8C484.8,154.6,484.1,153.1,483.4,151.5L483.4,151.5z"/>
	</g>
	<g>
		<path class="st1" d="M488.6,165.4h0.8c-0.6-1.5-1.3-3.1-1.9-4.6h-0.8C487.4,162.3,488,163.9,488.6,165.4z"/>
		<path class="st2" d="M487.5,160.8h-0.8c0.6,1.5,1.3,3.1,1.9,4.6h0.8C488.8,163.9,488.2,162.3,487.5,160.8L487.5,160.8z"/>
	</g>
	<g>
		<path class="st1" d="M490.4,170.1h0.8c-0.6-1.6-1.2-3.1-1.8-4.6h-0.8C489.2,167,489.8,168.5,490.4,170.1z"/>
		<path class="st2" d="M489.4,165.4h-0.8c0.6,1.5,1.2,3.1,1.8,4.6h0.8C490.6,168.5,490,167,489.4,165.4L489.4,165.4z"/>
	</g>
	<g>
		<path class="st1" d="M506.5,266.9c0-1.3,0.1-2.6,0.1-3.9h0.1C506.7,264.3,506.6,265.6,506.5,266.9L506.5,266.9z"/>
		<path class="st2" d="M507.1,262.6h-0.8c0,1.5-0.1,3.1-0.1,4.6h0.8C507,265.7,507.1,264.2,507.1,262.6L507.1,262.6z"/>
	</g>
	<g>
		<path class="st1" d="M506.7,253c0-1.3-0.1-2.6-0.1-3.9h0.1C506.7,250.4,506.7,251.7,506.7,253L506.7,253z"/>
		<path class="st2" d="M507,248.7h-0.8c0.1,1.5,0.1,3.1,0.1,4.6h0.8C507.1,251.8,507,250.3,507,248.7L507,248.7z"/>
	</g>
	<g>
		<path class="st1" d="M506.5,248.4c0-1.3-0.1-2.6-0.2-3.9h0.1C506.5,245.8,506.5,247.1,506.5,248.4L506.5,248.4z"/>
		<path class="st2" d="M506.8,244.1H506c0.1,1.5,0.2,3.1,0.2,4.6h0.8C506.9,247.2,506.9,245.6,506.8,244.1L506.8,244.1z"/>
	</g>
	<g>
		<path class="st1" d="M506.3,243.7c-0.1-1.3-0.2-2.6-0.2-3.9h0.1C506.2,241.1,506.3,242.4,506.3,243.7L506.3,243.7z"/>
		<path class="st2" d="M506.5,239.5h-0.8c0.1,1.5,0.2,3.1,0.3,4.6h0.8C506.7,242.6,506.6,241,506.5,239.5L506.5,239.5z"/>
	</g>
	<g>
		<path class="st1" d="M506.7,257.6c0-1.3,0-2.6,0-3.9h0.1C506.8,255,506.8,256.3,506.7,257.6L506.7,257.6z"/>
		<path class="st2" d="M507.1,253.4h-0.8c0,1.4,0,2.9,0,4.3c0,0.1,0,0.2,0,0.3h0.8c0-0.1,0-0.2,0-0.2
			C507.1,256.3,507.1,254.8,507.1,253.4L507.1,253.4z"/>
	</g>
	<g>
		<path class="st1" d="M506.7,262.2c0-1.3,0-2.6,0-3.9h0.1C506.8,259.7,506.7,260.9,506.7,262.2L506.7,262.2z"/>
		<path class="st2" d="M507.1,258h-0.8c0,1.5,0,3.1-0.1,4.6h0.8C507.1,261.1,507.1,259.5,507.1,258L507.1,258z"/>
	</g>
	<g>
		<path class="st1" d="M506,239.1c-0.1-1.3-0.2-2.6-0.3-3.9h0.1C505.9,236.5,506,237.8,506,239.1L506,239.1z"/>
		<path class="st2" d="M506.1,234.8h-0.8c0.1,1.5,0.3,3.1,0.4,4.6h0.8C506.4,237.9,506.2,236.4,506.1,234.8L506.1,234.8z"/>
	</g>
	<g>
		<path class="st1" d="M503.2,216c-0.2-1.3-0.5-2.6-0.7-3.9l0,0C502.8,213.4,503,214.7,503.2,216L503.2,216z"/>
		<path class="st2" d="M502.9,211.7h-0.8c0.3,1.5,0.6,3.1,0.8,4.6h0.8C503.4,214.8,503.2,213.2,502.9,211.7L502.9,211.7z"/>
	</g>
	<g>
		<path class="st1" d="M502.4,211.3c-0.2-1.3-0.5-2.6-0.8-3.9l0,0C501.9,208.7,502.2,210,502.4,211.3L502.4,211.3z"/>
		<path class="st2" d="M502,207.1h-0.8c0.3,1.5,0.6,3.1,0.9,4.6h0.8C502.6,210.2,502.3,208.6,502,207.1L502,207.1z"/>
	</g>
	<g>
		<path class="st1" d="M505.6,234.5c-0.1-1.3-0.2-2.6-0.4-3.9h0.1C505.4,231.9,505.6,233.2,505.6,234.5L505.6,234.5z"/>
		<path class="st2" d="M505.6,230.2h-0.8c0.2,1.5,0.3,3.1,0.5,4.6h0.8C506,233.3,505.8,231.8,505.6,230.2L505.6,230.2z"/>
	</g>
	<g>
		<path class="st1" d="M503.9,220.6c-0.2-1.3-0.4-2.6-0.6-3.9l0,0C503.6,218,503.8,219.3,503.9,220.6L503.9,220.6z"/>
		<path class="st2" d="M503.7,216.3h-0.8c0.3,1.5,0.5,3.1,0.7,4.6h0.8C504.2,219.4,504,217.9,503.7,216.3L503.7,216.3z"/>
	</g>
	<g>
		<path class="st1" d="M504.6,225.2c-0.2-1.3-0.3-2.6-0.5-3.9h0.1C504.3,222.6,504.5,223.9,504.6,225.2L504.6,225.2z"/>
		<path class="st2" d="M504.4,221h-0.8c0.2,1.5,0.4,3.1,0.6,4.6h0.8C504.9,224,504.7,222.5,504.4,221L504.4,221z"/>
	</g>
	<g>
		<path class="st1" d="M505.2,229.8c-0.1-1.3-0.3-2.6-0.5-3.9h0.1C504.9,227.3,505.1,228.5,505.2,229.8L505.2,229.8z"/>
		<path class="st2" d="M505.1,225.6h-0.8c0.2,1.5,0.4,3.1,0.6,4.6h0.8C505.5,228.7,505.3,227.1,505.1,225.6L505.1,225.6z"/>
	</g>
	<g>
		<path class="st1" d="M500.5,202.1c-0.3-1.3-0.6-2.6-0.9-3.9l0,0C499.9,199.5,500.2,200.8,500.5,202.1L500.5,202.1z"/>
		<path class="st2" d="M499.9,197.8h-0.8c0.4,1.5,0.7,3.1,1.1,4.6h0.8C500.6,200.9,500.2,199.4,499.9,197.8L499.9,197.8z"/>
	</g>
	<g>
		<path class="st1" d="M475.5,137.7h0.8c-0.9-1.6-1.7-3.1-2.6-4.6h-0.8C473.7,134.6,474.6,136.1,475.5,137.7z"/>
		<path class="st2" d="M473.6,133h-0.8c0.9,1.5,1.8,3.1,2.6,4.6h0.8C475.4,136.1,474.5,134.6,473.6,133L473.6,133z"/>
	</g>
	<g>
		<path class="st1" d="M413.1,63.6h0.7c-2-1.6-4-3.1-6-4.6h-0.7C409.1,60.5,411.1,62,413.1,63.6z"/>
		<path class="st2" d="M407.8,59h-0.7c2,1.5,4,3.1,6,4.6h0.7C411.8,62,409.9,60.5,407.8,59L407.8,59z"/>
	</g>
	<g>
		<path class="st1" d="M400.8,54.4h0.7c-2.2-1.6-4.5-3.1-6.8-4.6H394C396.2,51.2,398.5,52.8,400.8,54.4z"/>
		<path class="st2" d="M394.7,49.7H394c2.3,1.5,4.6,3,6.8,4.6h0.7C399.2,52.8,397,51.2,394.7,49.7L394.7,49.7z"/>
	</g>
	<g>
		<path class="st1" d="M418.7,68.2h0.7c-1.8-1.6-3.7-3.1-5.6-4.6h-0.7C415,65.1,416.8,66.7,418.7,68.2z"/>
		<path class="st2" d="M413.8,63.6h-0.7c1.9,1.5,3.8,3.1,5.6,4.6h0.7C417.6,66.7,415.7,65.1,413.8,63.6L413.8,63.6z"/>
	</g>
	<g>
		<path class="st1" d="M394,49.7h0.7c-2.4-1.6-4.9-3.1-7.3-4.6h-0.7C389.1,46.6,391.5,48.1,394,49.7z"/>
		<path class="st2" d="M387.3,45.1h-0.7c2.5,1.5,4.9,3,7.3,4.6h0.7C392.3,48.1,389.8,46.6,387.3,45.1L387.3,45.1z"/>
	</g>
	<g>
		<path class="st1" d="M424,72.9h0.8c-1.7-1.6-3.5-3.1-5.3-4.6h-0.7C420.5,69.8,422.2,71.3,424,72.9z"/>
		<path class="st2" d="M419.4,68.2h-0.7c1.8,1.5,3.5,3.1,5.3,4.6h0.8C423,71.3,421.2,69.8,419.4,68.2L419.4,68.2z"/>
	</g>
	<g>
		<path class="st1" d="M336.8,22h0.6c-5.1-1.7-10.3-3.3-15.5-4.6h-0.6C326.5,18.7,331.7,20.2,336.8,22z"/>
		<path class="st2" d="M321.9,17.3h-0.6c5.2,1.4,10.4,2.9,15.5,4.6h0.6C332.3,20.2,327.1,18.7,321.9,17.3L321.9,17.3z"/>
	</g>
	<g>
		<path class="st1" d="M349.4,26.6h0.7c-4.2-1.7-8.4-3.2-12.7-4.6h-0.6C341.1,23.4,345.3,24.9,349.4,26.6z"/>
		<path class="st2" d="M337.4,22h-0.6c4.3,1.4,8.5,3,12.7,4.6h0.7C345.9,24.9,341.7,23.4,337.4,22L337.4,22z"/>
	</g>
	<g>
		<path class="st1" d="M429,77.5h0.8c-1.6-1.6-3.3-3.1-5-4.6H424C425.7,74.4,427.3,75.9,429,77.5z"/>
		<path class="st2" d="M424.7,72.9h-0.8c1.7,1.5,3.4,3.1,5,4.6h0.8C428.1,75.9,426.4,74.4,424.7,72.9L424.7,72.9z"/>
	</g>
	<g>
		<path class="st1" d="M386.6,45.1h0.7c-2.6-1.6-5.3-3.1-8-4.6h-0.7C381.4,42,384,43.5,386.6,45.1z"/>
		<path class="st2" d="M379.4,40.5h-0.7c2.7,1.5,5.3,3,7.9,4.6h0.7C384.7,43.5,382.1,42,379.4,40.5L379.4,40.5z"/>
	</g>
	<g>
		<path class="st1" d="M300,12.7c7.2,1.2,14.3,2.8,21.3,4.6h0.6c-7-1.8-14.2-3.4-21.5-4.6H300z"/>
		<path class="st2" d="M300.4,12.7h-0.5c7.2,1.2,14.3,2.8,21.3,4.6h0.6C314.9,15.5,307.7,13.9,300.4,12.7L300.4,12.7z"/>
	</g>
	<g>
		<path class="st1" d="M378.7,40.5h0.7c-2.9-1.6-5.8-3.1-8.7-4.6H370C372.9,37.3,375.8,38.9,378.7,40.5z"/>
		<path class="st2" d="M370.7,35.8H370c2.9,1.5,5.8,3,8.7,4.6h0.7C376.5,38.9,373.6,37.3,370.7,35.8L370.7,35.8z"/>
	</g>
	<g>
		<path class="st1" d="M360.3,31.2h0.7c-3.6-1.6-7.2-3.2-10.9-4.6h-0.7C353.1,28,356.7,29.6,360.3,31.2z"/>
		<path class="st2" d="M350.1,26.6h-0.7c3.7,1.5,7.3,3,10.9,4.6h0.7C357.4,29.6,353.8,28,350.1,26.6L350.1,26.6z"/>
	</g>
	<g>
		<path class="st1" d="M407.1,59h0.7c-2.1-1.6-4.2-3.1-6.4-4.6h-0.7C402.9,55.9,405,57.4,407.1,59z"/>
		<path class="st2" d="M401.5,54.4h-0.7c2.1,1.5,4.3,3.1,6.4,4.6h0.7C405.8,57.4,403.6,55.9,401.5,54.4L401.5,54.4z"/>
	</g>
	<g>
		<path class="st1" d="M464.2,119.1h0.8c-1-1.6-2.1-3.1-3.2-4.6H461C462.1,116,463.1,117.6,464.2,119.1z"/>
		<path class="st2" d="M461.7,114.5h-0.8c1.1,1.5,2.1,3.1,3.2,4.6h0.8C463.9,117.6,462.8,116,461.7,114.5L461.7,114.5z"/>
	</g>
	<g>
		<path class="st1" d="M461,114.5h0.8c-1.1-1.6-2.2-3.1-3.3-4.6h-0.8C458.8,111.4,459.9,113,461,114.5z"/>
		<path class="st2" d="M458.4,109.9h-0.8c1.1,1.5,2.2,3.1,3.3,4.6h0.8C460.6,113,459.5,111.4,458.4,109.9L458.4,109.9z"/>
	</g>
	<g>
		<path class="st1" d="M467.2,123.8h0.8c-1-1.6-2-3.1-3-4.6h-0.8C465.2,120.7,466.2,122.2,467.2,123.8z"/>
		<path class="st2" d="M464.9,119.1h-0.8c1,1.5,2,3.1,3,4.6h0.8C467,122.2,466,120.7,464.9,119.1L464.9,119.1z"/>
	</g>
	<g>
		<path class="st1" d="M457.6,109.9h0.8c-1.2-1.6-2.3-3.1-3.5-4.6h-0.8C455.3,106.8,456.5,108.3,457.6,109.9z"/>
		<path class="st2" d="M454.9,105.3h-0.8c1.2,1.5,2.4,3.1,3.5,4.6h0.8C457.2,108.3,456.1,106.8,454.9,105.3L454.9,105.3z"/>
	</g>
	<g>
		<path class="st1" d="M433.7,82.1h0.8c-1.6-1.6-3.1-3.1-4.7-4.6H429C430.6,79,432.2,80.6,433.7,82.1z"/>
		<path class="st2" d="M429.7,77.5h-0.8c1.6,1.5,3.2,3.1,4.7,4.6h0.8C432.9,80.6,431.3,79,429.7,77.5L429.7,77.5z"/>
	</g>
	<g>
		<path class="st1" d="M470.1,128.4h0.8c-0.9-1.6-1.9-3.1-2.9-4.6h-0.8C468.2,125.3,469.1,126.8,470.1,128.4z"/>
		<path class="st2" d="M468,123.8h-0.8c1,1.5,1.9,3.1,2.9,4.6h0.8C469.9,126.8,469,125.3,468,123.8L468,123.8z"/>
	</g>
	<g>
		<path class="st1" d="M472.8,133h0.8c-0.9-1.6-1.8-3.1-2.8-4.6H470C471,129.9,471.9,131.5,472.8,133z"/>
		<path class="st2" d="M470.9,128.4h-0.8c0.9,1.5,1.9,3.1,2.8,4.6h0.8C472.7,131.5,471.8,129.9,470.9,128.4L470.9,128.4z"/>
	</g>
	<g>
		<path class="st1" d="M442.5,91.4h0.8c-1.4-1.6-2.8-3.1-4.3-4.6h-0.8C439.7,88.3,441.1,89.8,442.5,91.4z"/>
		<path class="st2" d="M439,86.7h-0.8c1.4,1.5,2.9,3.1,4.3,4.6h0.8C441.8,89.8,440.4,88.3,439,86.7L439,86.7z"/>
	</g>
	<g>
		<path class="st1" d="M454.1,105.3h0.8c-1.2-1.6-2.4-3.1-3.7-4.6h-0.8C451.7,102.2,452.9,103.7,454.1,105.3z"/>
		<path class="st2" d="M451.2,100.6h-0.8c1.2,1.5,2.5,3.1,3.7,4.6h0.8C453.7,103.7,452.4,102.2,451.2,100.6L451.2,100.6z"/>
	</g>
	<g>
		<path class="st1" d="M438.2,86.7h0.8c-1.5-1.6-3-3.1-4.5-4.6h-0.8C435.2,83.6,436.7,85.2,438.2,86.7z"/>
		<path class="st2" d="M434.5,82.1h-0.8c1.5,1.5,3,3.1,4.5,4.6h0.8C437.5,85.2,436,83.6,434.5,82.1L434.5,82.1z"/>
	</g>
	<g>
		<path class="st1" d="M450.4,100.6h0.8c-1.3-1.6-2.6-3.1-3.9-4.6h-0.8C447.9,97.5,449.2,99.1,450.4,100.6z"/>
		<path class="st2" d="M447.3,96h-0.8c1.3,1.5,2.6,3.1,3.9,4.6h0.8C449.9,99.1,448.6,97.5,447.3,96L447.3,96z"/>
	</g>
	<g>
		<path class="st1" d="M446.6,96h0.8c-1.3-1.6-2.7-3.1-4.1-4.6h-0.8C443.9,92.9,445.2,94.4,446.6,96z"/>
		<path class="st2" d="M443.2,91.4h-0.8c1.4,1.5,2.7,3.1,4.1,4.6h0.8C446,94.4,444.6,92.9,443.2,91.4L443.2,91.4z"/>
	</g>
	<g>
		<path class="st1" d="M370,35.8h0.7c-3.2-1.6-6.4-3.2-9.6-4.6h-0.7C363.6,32.7,366.8,34.2,370,35.8z"/>
		<path class="st2" d="M361,31.2h-0.7c3.3,1.5,6.5,3,9.6,4.6h0.7C367.5,34.2,364.3,32.7,361,31.2L361,31.2z"/>
	</g>
	<g>
		<path class="st1" d="M423.3,443.1h0.9c1.7-1.5,3.4-3.1,5-4.6h-0.9C426.7,440,425,441.6,423.3,443.1z"/>
		<path class="st2" d="M429.2,438.5h-0.9c-1.7,1.6-3.3,3.1-5,4.6h0.9C425.9,441.6,427.6,440,429.2,438.5L429.2,438.5z"/>
	</g>
	<g>
		<path class="st1" d="M428.3,438.5h0.9c1.6-1.5,3.2-3.1,4.8-4.6h-0.9C431.5,435.4,429.9,437,428.3,438.5z"/>
		<path class="st2" d="M434,433.9h-0.9c-1.6,1.6-3.2,3.1-4.8,4.6h0.9C430.8,437,432.4,435.4,434,433.9L434,433.9z"/>
	</g>
	<g>
		<path class="st1" d="M433.1,433.9h0.9c1.5-1.5,3-3.1,4.5-4.6h-0.9C436.2,430.8,434.6,432.3,433.1,433.9z"/>
		<path class="st2" d="M438.5,429.2h-0.9c-1.5,1.6-3,3.1-4.5,4.6h0.9C435.5,432.3,437,430.8,438.5,429.2L438.5,429.2z"/>
	</g>
	<g>
		<path class="st1" d="M412.3,452.4h0.9c1.9-1.5,3.8-3.1,5.7-4.6H418C416.1,449.3,414.2,450.8,412.3,452.4z"/>
		<path class="st2" d="M418.9,447.7H418c-1.9,1.6-3.7,3.1-5.7,4.6h0.9C415.1,450.8,417,449.3,418.9,447.7L418.9,447.7z"/>
	</g>
	<g>
		<path class="st1" d="M437.6,429.2h0.9c1.5-1.5,2.9-3.1,4.3-4.6h-0.9C440.5,426.2,439.1,427.7,437.6,429.2z"/>
		<path class="st2" d="M442.8,424.6h-0.9c-1.4,1.6-2.8,3.1-4.3,4.6h0.9C440,427.7,441.4,426.2,442.8,424.6L442.8,424.6z"/>
	</g>
	<g>
		<path class="st1" d="M418,447.7h0.9c1.8-1.5,3.6-3.1,5.3-4.6h-0.9C421.5,444.7,419.8,446.2,418,447.7z"/>
		<path class="st2" d="M424.2,443.1h-0.9c-1.8,1.6-3.5,3.1-5.3,4.6h0.9C420.7,446.2,422.4,444.7,424.2,443.1L424.2,443.1z"/>
	</g>
	<g>
		<path class="st1" d="M453.6,410.7h0.9c1.2-1.5,2.4-3.1,3.5-4.6h-0.9C456,407.6,454.8,409.2,453.6,410.7z"/>
		<path class="st2" d="M458,406.1h-0.9c-1.2,1.6-2.3,3.1-3.5,4.6h0.9C455.7,409.2,456.9,407.6,458,406.1L458,406.1z"/>
	</g>
	<g>
		<path class="st1" d="M457.2,406.1h0.9c1.1-1.5,2.3-3.1,3.4-4.6h-0.9C459.4,403,458.3,404.6,457.2,406.1z"/>
		<path class="st2" d="M461.4,401.5h-0.9c-1.1,1.6-2.2,3.1-3.4,4.6h0.9C459.2,404.6,460.3,403,461.4,401.5L461.4,401.5z"/>
	</g>
	<g>
		<path class="st1" d="M460.5,401.5h0.9c1.1-1.5,2.2-3.1,3.2-4.6h-0.9C462.7,398.4,461.6,399.9,460.5,401.5z"/>
		<path class="st2" d="M464.6,396.8h-0.9c-1.1,1.6-2.1,3.1-3.2,4.6h0.9C462.5,399.9,463.6,398.4,464.6,396.8L464.6,396.8z"/>
	</g>
	<g>
		<path class="st1" d="M406.3,457h0.9c2-1.5,4-3.1,6-4.6h-0.9C410.3,453.9,408.3,455.5,406.3,457z"/>
		<path class="st2" d="M413.2,452.4h-0.9c-2,1.6-4,3.1-6,4.6h0.9C409.2,455.5,411.2,453.9,413.2,452.4L413.2,452.4z"/>
	</g>
	<g>
		<path class="st1" d="M446,420h0.9c1.3-1.5,2.6-3.1,3.9-4.6h-0.9C448.7,416.9,447.4,418.4,446,420z"/>
		<path class="st2" d="M450.8,415.3h-0.9c-1.3,1.6-2.6,3.1-3.9,4.6h0.9C448.2,418.4,449.5,416.9,450.8,415.3L450.8,415.3z"/>
	</g>
	<g>
		<path class="st1" d="M449.9,415.3h0.9c1.3-1.5,2.5-3.1,3.7-4.6h-0.9C452.4,412.3,451.2,413.8,449.9,415.3z"/>
		<path class="st2" d="M454.5,410.7h-0.9c-1.2,1.6-2.5,3.1-3.7,4.6h0.9C452.1,413.8,453.3,412.3,454.5,410.7L454.5,410.7z"/>
	</g>
	<g>
		<path class="st1" d="M441.9,424.6h0.9c1.4-1.5,2.7-3.1,4.1-4.6H446C444.7,421.5,443.3,423.1,441.9,424.6z"/>
		<path class="st2" d="M446.9,420H446c-1.3,1.6-2.7,3.1-4.1,4.6h0.9C444.2,423.1,445.6,421.5,446.9,420L446.9,420z"/>
	</g>
	<g>
		<path class="st1" d="M393,466.2h0.9c2.3-1.5,4.6-3,6.9-4.6h-0.9C397.6,463.2,395.3,464.7,393,466.2z"/>
		<path class="st2" d="M400.8,461.6h-0.9c-2.3,1.6-4.6,3.1-6.9,4.6h0.9C396.3,464.7,398.5,463.2,400.8,461.6L400.8,461.6z"/>
	</g>
	<g>
		<path class="st1" d="M335,494h1c4.4-1.4,8.7-3,12.9-4.6h-1C343.7,491,339.3,492.6,335,494z"/>
		<path class="st2" d="M348.9,489.4h-1c-4.3,1.7-8.6,3.2-12.9,4.6h1C340.3,492.6,344.6,491,348.9,489.4L348.9,489.4z"/>
	</g>
	<g>
		<path class="st1" d="M319,498.6h1.1c5.4-1.4,10.7-2.9,15.9-4.6h-1C329.7,495.7,324.4,497.3,319,498.6z"/>
		<path class="st2" d="M336,494h-1c-5.3,1.7-10.6,3.3-16,4.6h1.1C325.4,497.3,330.7,495.7,336,494L336,494z"/>
	</g>
	<g>
		<path class="st1" d="M257.8,506.2c-6.3,0-12.5-0.2-18.6-0.7c6.4,0.5,12.9,0.7,19.4,0.7c13.2,0,26.2-1,38.9-3h-1.2
			C283.7,505.2,270.9,506.2,257.8,506.2z"/>
		<path class="st2" d="M297.5,503.3h-1.2c-12.6,2-25.4,3-38.5,3c-6.3,0-12.5-0.2-18.6-0.7c6.4,0.5,12.9,0.7,19.4,0.7
			C271.8,506.3,284.8,505.3,297.5,503.3L297.5,503.3z"/>
	</g>
	<g>
		<path class="st1" d="M296.3,503.3h1.2c7.6-1.2,15.2-2.7,22.6-4.6H319C311.5,500.5,304,502.1,296.3,503.3z"/>
		<path class="st2" d="M320,498.6h-1.1c-7.4,1.9-15,3.4-22.7,4.6h1.2C305.1,502.1,312.7,500.5,320,498.6L320,498.6z"/>
	</g>
	<g>
		<path class="st1" d="M506.3,271.5c0.1-1.3,0.1-2.6,0.2-3.9h0.1C506.5,268.9,506.5,270.2,506.3,271.5L506.3,271.5z"/>
		<path class="st2" d="M507,267.2h-0.8c-0.1,1.5-0.1,3.1-0.2,4.6h0.8C506.8,270.3,506.9,268.8,507,267.2L507,267.2z"/>
	</g>
	<g>
		<path class="st1" d="M347.9,489.4h1c3.7-1.5,7.4-3,11.1-4.6h-1C355.3,486.4,351.6,487.9,347.9,489.4z"/>
		<path class="st2" d="M359.9,484.8h-1c-3.6,1.6-7.3,3.2-11.1,4.6h1C352.6,487.9,356.3,486.4,359.9,484.8L359.9,484.8z"/>
	</g>
	<g>
		<path class="st1" d="M463.8,396.8h0.9c1-1.5,2.1-3.1,3.1-4.6h-0.9C465.8,393.8,464.8,395.3,463.8,396.8z"/>
		<path class="st2" d="M467.7,392.2h-0.9c-1,1.6-2,3.1-3.1,4.6h0.9C465.7,395.3,466.7,393.8,467.7,392.2L467.7,392.2z"/>
	</g>
	<g>
		<path class="st1" d="M359,484.8h1c3.3-1.5,6.6-3,9.8-4.6h-0.9C365.6,481.7,362.3,483.3,359,484.8z"/>
		<path class="st2" d="M369.7,480.1h-0.9c-3.2,1.6-6.5,3.2-9.8,4.6h1C363.2,483.3,366.5,481.7,369.7,480.1L369.7,480.1z"/>
	</g>
	<g>
		<path class="st1" d="M385.6,470.9h0.9c2.5-1.5,5-3,7.4-4.6H393C390.6,467.8,388.1,469.4,385.6,470.9z"/>
		<path class="st2" d="M393.9,466.2H393c-2.4,1.6-4.9,3.1-7.4,4.6h0.9C389,469.4,391.5,467.8,393.9,466.2L393.9,466.2z"/>
	</g>
	<g>
		<path class="st1" d="M399.9,461.6h0.9c2.2-1.5,4.3-3.1,6.4-4.6h-0.9C404.2,458.6,402.1,460.1,399.9,461.6z"/>
		<path class="st2" d="M407.2,457h-0.9c-2.1,1.6-4.3,3.1-6.4,4.6h0.9C403,460.1,405.1,458.6,407.2,457L407.2,457z"/>
	</g>
	<g>
		<path class="st1" d="M377.6,475.5h0.9c2.7-1.5,5.4-3,8-4.6h-0.9C383,472.5,380.3,474,377.6,475.5z"/>
		<path class="st2" d="M386.5,470.9h-0.9c-2.6,1.6-5.3,3.1-8,4.6h0.9C381.2,474,383.9,472.5,386.5,470.9L386.5,470.9z"/>
	</g>
	<g>
		<path class="st1" d="M368.8,480.1h0.9c3-1.5,5.9-3,8.8-4.6h-0.9C374.7,477.1,371.7,478.6,368.8,480.1z"/>
		<path class="st2" d="M378.5,475.5h-0.9c-2.9,1.6-5.8,3.1-8.8,4.6h0.9C372.7,478.6,375.6,477.1,378.5,475.5L378.5,475.5z"/>
	</g>
	<g>
		<path class="st1" d="M504,294.6c0.2-1.3,0.4-2.6,0.5-3.9h0.1C504.4,292.1,504.2,293.3,504,294.6L504,294.6z"/>
		<path class="st2" d="M505,290.4h-0.8c-0.2,1.5-0.4,3.1-0.7,4.6h0.8C504.6,293.5,504.8,291.9,505,290.4L505,290.4z"/>
	</g>
	<g>
		<path class="st1" d="M500.5,313.1c0.3-1.3,0.6-2.6,0.8-3.9h0.1C501.1,310.6,500.9,311.9,500.5,313.1L500.5,313.1z"/>
		<path class="st2" d="M501.9,308.9h-0.8c-0.3,1.5-0.7,3.1-1,4.6h0.8C501.2,312,501.5,310.4,501.9,308.9L501.9,308.9z"/>
	</g>
	<g>
		<path class="st1" d="M502.4,303.9c0.2-1.3,0.5-2.6,0.7-3.9h0.1C503,301.3,502.7,302.6,502.4,303.9L502.4,303.9z"/>
		<path class="st2" d="M503.6,299.6h-0.8c-0.3,1.5-0.5,3.1-0.8,4.6h0.8C503.1,302.7,503.4,301.2,503.6,299.6L503.6,299.6z"/>
	</g>
	<g>
		<path class="st1" d="M501.5,308.5c0.3-1.3,0.5-2.6,0.8-3.9h0.1C502.1,305.9,501.8,307.2,501.5,308.5L501.5,308.5z"/>
		<path class="st2" d="M502.8,304.3H502c-0.3,1.5-0.6,3.1-0.9,4.6h0.8C502.2,307.4,502.5,305.8,502.8,304.3L502.8,304.3z"/>
	</g>
	<g>
		<path class="st1" d="M499.4,317.8c0.3-1.3,0.6-2.6,0.9-3.9h0.1C500.1,315.2,499.8,316.5,499.4,317.8L499.4,317.8z"/>
		<path class="st2" d="M500.9,313.5h-0.8c-0.4,1.5-0.7,3.1-1.1,4.6h0.8C500.1,316.6,500.5,315.1,500.9,313.5L500.9,313.5z"/>
	</g>
	<g>
		<path class="st1" d="M498.2,322.4c0.3-1.3,0.7-2.6,1-3.9h0.1C498.9,319.8,498.6,321.1,498.2,322.4L498.2,322.4z"/>
		<path class="st2" d="M499.7,318.2h-0.8c-0.4,1.5-0.8,3.1-1.2,4.6h0.8C499,321.2,499.4,319.7,499.7,318.2L499.7,318.2z"/>
	</g>
	<g>
		<path class="st1" d="M496.9,327c0.4-1.3,0.7-2.6,1.1-3.9h0.1C497.7,324.5,497.3,325.7,496.9,327L496.9,327z"/>
		<path class="st2" d="M498.5,322.8h-0.8c-0.4,1.5-0.9,3.1-1.3,4.6h0.8C497.7,325.9,498.1,324.3,498.5,322.8L498.5,322.8z"/>
	</g>
	<g>
		<path class="st1" d="M505.2,285.4c0.1-1.3,0.3-2.6,0.4-3.9h0.1C505.5,282.8,505.4,284.1,505.2,285.4L505.2,285.4z"/>
		<path class="st2" d="M506.1,281.1h-0.8c-0.1,1.5-0.3,3.1-0.5,4.6h0.8C505.8,284.2,505.9,282.7,506.1,281.1L506.1,281.1z"/>
	</g>
	<g>
		<path class="st1" d="M505.6,280.8c0.1-1.3,0.2-2.6,0.3-3.9h0.1C505.9,278.2,505.8,279.5,505.6,280.8L505.6,280.8z"/>
		<path class="st2" d="M506.4,276.5h-0.8c-0.1,1.5-0.2,3.1-0.4,4.6h0.8C506.2,279.6,506.3,278,506.4,276.5L506.4,276.5z"/>
	</g>
	<g>
		<path class="st1" d="M506,276.1c0.1-1.3,0.2-2.6,0.3-3.9h0.1C506.3,273.5,506.2,274.8,506,276.1L506,276.1z"/>
		<path class="st2" d="M506.7,271.9h-0.8c-0.1,1.5-0.2,3.1-0.3,4.6h0.8C506.6,275,506.7,273.4,506.7,271.9L506.7,271.9z"/>
	</g>
	<g>
		<path class="st1" d="M504.6,290c0.2-1.3,0.3-2.6,0.5-3.9h0.1C505,287.4,504.9,288.7,504.6,290L504.6,290z"/>
		<path class="st2" d="M505.6,285.8h-0.8c-0.2,1.5-0.4,3.1-0.6,4.6h0.8C505.2,288.8,505.4,287.3,505.6,285.8L505.6,285.8z"/>
	</g>
	<g>
		<path class="st1" d="M495.5,331.7c0.4-1.3,0.8-2.6,1.2-3.9h0.1C496.4,329.1,496,330.4,495.5,331.7L495.5,331.7z"/>
		<path class="st2" d="M497.2,327.4h-0.8c-0.5,1.5-0.9,3.1-1.4,4.6h0.8C496.3,330.5,496.8,329,497.2,327.4L497.2,327.4z"/>
	</g>
	<g>
		<path class="st1" d="M503.2,299.3c0.2-1.3,0.4-2.6,0.6-3.9h0.1C503.7,296.7,503.5,298,503.2,299.3L503.2,299.3z"/>
		<path class="st2" d="M504.4,295h-0.8c-0.2,1.5-0.5,3.1-0.7,4.6h0.8C503.9,298.1,504.1,296.6,504.4,295L504.4,295z"/>
	</g>
	<g>
		<path class="st1" d="M482.9,364.1c0.6-1.3,1.2-2.6,1.8-3.9l0,0C484.1,361.5,483.5,362.8,482.9,364.1L482.9,364.1z"/>
		<path class="st2" d="M485.3,359.8h-0.9c-0.7,1.6-1.4,3.1-2.1,4.6h0.8C483.9,362.9,484.6,361.4,485.3,359.8L485.3,359.8z"/>
	</g>
	<g>
		<path class="st1" d="M480.6,368.7c0.6-1.3,1.3-2.6,1.9-3.9l0,0C481.9,366.1,481.3,367.4,480.6,368.7L480.6,368.7z"/>
		<path class="st2" d="M483.1,364.4h-0.8c-0.7,1.6-1.5,3.1-2.3,4.6h0.8C481.7,367.5,482.4,366,483.1,364.4L483.1,364.4z"/>
	</g>
	<g>
		<path class="st1" d="M478.3,373.3c0.7-1.3,1.3-2.6,2-3.9l0,0C479.6,370.7,479,372,478.3,373.3L478.3,373.3z"/>
		<path class="st2" d="M480.9,369.1h-0.8c-0.8,1.6-1.6,3.1-2.4,4.6h0.9C479.3,372.2,480.1,370.6,480.9,369.1L480.9,369.1z"/>
	</g>
	<g>
		<path class="st1" d="M469.7,387.6h0.9c0.9-1.5,1.9-3.1,2.8-4.6h-0.9C471.6,384.5,470.7,386,469.7,387.6z"/>
		<path class="st2" d="M473.4,382.9h-0.9c-0.9,1.6-1.8,3.1-2.8,4.6h0.9C471.5,386,472.4,384.5,473.4,382.9L473.4,382.9z"/>
	</g>
	<g>
		<path class="st1" d="M477.9,374.1c0,0-0.3,0.6-0.5,0.9C477.5,374.7,477.7,374.4,477.9,374.1z"/>
		<path class="st2" d="M478.5,373.7h-0.9c-0.8,1.6-1.7,3.1-2.5,4.6h0.9C476.8,376.8,477.7,375.2,478.5,373.7L478.5,373.7z"/>
	</g>
	<g>
		<path class="st1" d="M472.5,382.9h0.9c0.9-1.5,1.8-3.1,2.6-4.6h-0.9C474.3,379.9,473.4,381.4,472.5,382.9z"/>
		<path class="st2" d="M476,378.3h-0.9c-0.9,1.6-1.7,3.1-2.6,4.6h0.9C474.2,381.4,475.1,379.9,476,378.3L476,378.3z"/>
	</g>
	<g>
		<path class="st1" d="M494,336.3c0.4-1.3,0.8-2.6,1.3-3.9h0.1C494.9,333.7,494.5,335,494,336.3L494,336.3z"/>
		<path class="st2" d="M495.8,332H495c-0.5,1.5-1,3.1-1.5,4.6h0.8C494.9,335.1,495.4,333.6,495.8,332L495.8,332z"/>
	</g>
	<g>
		<path class="st1" d="M488.9,350.2c0.5-1.3,1-2.6,1.5-3.9l0,0C490,347.6,489.5,348.9,488.9,350.2L488.9,350.2z"/>
		<path class="st2" d="M491,345.9h-0.8c-0.6,1.6-1.2,3.1-1.8,4.6h0.8C489.9,349,490.5,347.5,491,345.9L491,345.9z"/>
	</g>
	<g>
		<path class="st1" d="M490.8,345.5c0.5-1.3,1-2.6,1.4-3.9l0,0C491.8,343,491.3,344.3,490.8,345.5L490.8,345.5z"/>
		<path class="st2" d="M492.7,341.3h-0.8c-0.6,1.5-1.1,3.1-1.7,4.6h0.8C491.6,344.4,492.2,342.8,492.7,341.3L492.7,341.3z"/>
	</g>
	<g>
		<path class="st1" d="M492.4,340.9c0.5-1.3,0.9-2.6,1.3-3.9l0,0C493.4,338.3,492.9,339.6,492.4,340.9L492.4,340.9z"/>
		<path class="st2" d="M494.3,336.7h-0.8c-0.5,1.5-1.1,3.1-1.6,4.6h0.8C493.3,339.8,493.8,338.2,494.3,336.7L494.3,336.7z"/>
	</g>
	<g>
		<path class="st1" d="M485,359.4c0.6-1.3,1.1-2.6,1.7-3.9l0,0C486.2,356.8,485.6,358.1,485,359.4L485,359.4z"/>
		<path class="st2" d="M487.3,355.2h-0.8c-0.7,1.6-1.3,3.1-2,4.6h0.8C486,358.3,486.7,356.7,487.3,355.2L487.3,355.2z"/>
	</g>
	<g>
		<path class="st1" d="M487,354.8c0.5-1.3,1.1-2.6,1.6-3.9l0,0C488.2,352.2,487.6,353.5,487,354.8L487,354.8z"/>
		<path class="st2" d="M489.2,350.5h-0.8c-0.6,1.6-1.3,3.1-1.9,4.6h0.8C488,353.6,488.6,352.1,489.2,350.5L489.2,350.5z"/>
	</g>
	<g>
		<path class="st1" d="M466.8,392.2h0.9c1-1.5,2-3.1,2.9-4.6h-0.9C468.8,389.1,467.8,390.7,466.8,392.2z"/>
		<path class="st2" d="M470.6,387.6h-0.9c-1,1.6-1.9,3.1-2.9,4.6h0.9C468.7,390.7,469.6,389.1,470.6,387.6L470.6,387.6z"/>
	</g>
	<g>
		<path class="st1" d="M24.7,340.9c-0.5-1.3-0.9-2.6-1.3-3.9H493c-0.4,1.3-0.9,2.6-1.3,3.9H24.7z"/>
		<path class="st2" d="M492.5,337.4c-0.4,1-0.7,2.1-1.1,3.1H24.9c-0.4-1-0.7-2.1-1.1-3.1H492.5 M493.5,336.7H22.8
			c0.5,1.5,1.1,3.1,1.6,4.6h467.5C492.5,339.8,493,338.2,493.5,336.7L493.5,336.7z"/>
	</g>
	<g>
		<path class="st1" d="M26.4,345.5c-0.5-1.3-1-2.6-1.4-3.9h466.4c-0.5,1.3-0.9,2.6-1.4,3.9H26.4z"/>
		<path class="st2" d="M490.8,342c-0.4,1.1-0.8,2.1-1.2,3.1h-463c-0.4-1-0.8-2-1.2-3.1H490.8 M491.9,341.3H24.4
			c0.6,1.5,1.1,3.1,1.7,4.6h464.1C490.8,344.4,491.4,342.8,491.9,341.3L491.9,341.3z"/>
	</g>
	<g>
		<path class="st1" d="M18.9,322.4c-0.3-1.3-0.7-2.6-1-3.9h480.5c-0.3,1.3-0.7,2.6-1,3.9H18.9z"/>
		<path class="st2" d="M498,318.9c-0.3,1.1-0.6,2.2-0.8,3.1h-478c-0.3-1-0.5-2-0.8-3.1H498 M498.9,318.2H17.4
			c0.4,1.5,0.8,3.1,1.2,4.6h479.1C498.1,321.2,498.5,319.7,498.9,318.2L498.9,318.2z"/>
	</g>
	<g>
		<path class="st1" d="M21.6,331.7c-0.4-1.3-0.8-2.6-1.2-3.9h475.5c-0.4,1.3-0.8,2.6-1.2,3.9H21.6z"/>
		<path class="st2" d="M495.4,328.2c-0.3,1.1-0.6,2.1-0.9,3.1H21.9c-0.3-1-0.6-2-0.9-3.1H495.4 M496.4,327.4H19.9
			c0.5,1.5,0.9,3.1,1.4,4.6H495C495.5,330.5,496,329,496.4,327.4L496.4,327.4z"/>
	</g>
	<g>
		<path class="st1" d="M20.2,327c-0.4-1.3-0.7-2.6-1.1-3.9h478.1c-0.4,1.3-0.7,2.6-1.1,3.9H20.2z"/>
		<path class="st2" d="M496.7,323.5c-0.3,1-0.6,2-0.9,3.1H20.5c-0.3-1.1-0.6-2.2-0.9-3.1H496.7 M497.7,322.8H18.6
			c0.4,1.5,0.9,3.1,1.3,4.6h476.5C496.9,325.9,497.3,324.3,497.7,322.8L497.7,322.8z"/>
	</g>
	<g>
		<path class="st1" d="M23.1,336.3c-0.4-1.3-0.8-2.6-1.3-3.9h472.7c-0.4,1.3-0.8,2.6-1.3,3.9H23.1z"/>
		<path class="st2" d="M494,332.8c-0.3,1-0.7,2.1-1,3.1H23.4c-0.4-1.1-0.7-2.1-1-3.1H494 M495,332H21.3c0.5,1.5,1,3.1,1.5,4.6h470.7
			C494,335.1,494.5,333.6,495,332L495,332z"/>
	</g>
	<g>
		<path class="st1" d="M38.9,373.3c-0.7-1.3-1.3-2.6-2-3.9h442.5c-0.7,1.3-1.3,2.6-2,3.9H38.9z"/>
		<path class="st2" d="M478.8,369.8c-0.6,1.1-1.1,2.1-1.6,3.1H39.1c-0.5-1-1.1-2-1.6-3.1H478.8 M480,369.1H36.3
			c0.8,1.6,1.6,3.1,2.4,4.6h439C478.5,372.2,479.3,370.6,480,369.1L480,369.1z"/>
	</g>
	<g>
		<path class="st1" d="M17.7,317.8c-0.3-1.3-0.6-2.6-0.9-3.9h482.8c-0.3,1.3-0.6,2.6-0.9,3.9H17.7z"/>
		<path class="st2" d="M499.1,314.3c-0.2,1-0.5,2-0.8,3.1H18c-0.3-1.1-0.5-2.1-0.8-3.1H499.1 M500,313.5H16.3
			c0.4,1.5,0.7,3.1,1.1,4.6h481.5C499.3,316.6,499.7,315.1,500,313.5L500,313.5z"/>
	</g>
	<g>
		<path class="st1" d="M36.5,368.7c-0.6-1.3-1.3-2.6-1.9-3.9h447.1c-0.6,1.3-1.3,2.6-1.9,3.9H36.5z"/>
		<path class="st2" d="M481.1,365.2c-0.5,1-1,2.1-1.5,3.1H36.7c-0.5-1-1-2.1-1.5-3.1H481.1 M482.3,364.4H34c0.7,1.6,1.5,3.1,2.3,4.6
			H480C480.8,367.5,481.6,366,482.3,364.4L482.3,364.4z"/>
	</g>
	<g>
		<path class="st1" d="M30.1,354.8c-0.5-1.3-1.1-2.6-1.6-3.9h459.3c-0.5,1.3-1.1,2.6-1.6,3.9H30.1z"/>
		<path class="st2" d="M487.3,351.3c-0.4,1.1-0.9,2.1-1.3,3.1H30.3c-0.4-1-0.9-2.1-1.3-3.1H487.3 M488.4,350.5H27.9
			c0.6,1.6,1.3,3.1,1.9,4.6h456.6C487.1,353.6,487.8,352.1,488.4,350.5L488.4,350.5z"/>
	</g>
	<g>
		<path class="st1" d="M10.4,257.6c0-1.3,0-2.6,0-3.9h495.5c0,1.3,0,2.6,0,3.9H10.4z"/>
		<path class="st2" d="M505.5,254.1c0,1.2,0,2.2,0,3.1H10.8c0-1,0-2,0-3.1H505.5 M506.3,253.4H10.1c0,1.5,0,2.9,0,4.4
			c0,0.1,0,0.2,0,0.2h496.3c0-0.1,0-0.2,0-0.3C506.3,256.2,506.3,254.8,506.3,253.4L506.3,253.4z"/>
	</g>
	<g>
		<path class="st1" d="M41.4,377.9c-0.7-1.3-1.4-2.6-2.1-3.9H477c-0.7,1.3-1.4,2.6-2.1,3.9H41.4z"/>
		<path class="st2" d="M476.4,374.4c-0.6,1-1.1,2.1-1.7,3.1H41.6c-0.6-1.1-1.2-2.1-1.7-3.1H476.4 M477.6,373.7h-439
			c0.8,1.6,1.7,3.1,2.5,4.6h434C476,376.8,476.8,375.2,477.6,373.7L477.6,373.7z"/>
	</g>
	<g>
		<path class="st1" d="M34.3,364.1c-0.6-1.3-1.2-2.6-1.8-3.9h451.4c-0.6,1.3-1.2,2.6-1.8,3.9H34.3z"/>
		<path class="st2" d="M483.3,360.6c-0.5,1-0.9,2-1.5,3.1H34.5c-0.5-1.1-1-2.1-1.5-3.1H483.3 M484.4,359.8H31.9
			c0.7,1.6,1.4,3.1,2.1,4.6h448.3C483,362.9,483.7,361.4,484.4,359.8L484.4,359.8z"/>
	</g>
	<g>
		<path class="st1" d="M32.1,359.4c-0.6-1.3-1.1-2.6-1.7-3.9h455.5c-0.6,1.3-1.1,2.6-1.7,3.9H32.1z"/>
		<path class="st2" d="M485.3,355.9c-0.5,1.1-0.9,2.1-1.4,3.1H32.4c-0.5-1-0.9-2.1-1.4-3.1H485.3 M486.5,355.2H29.8
			c0.7,1.6,1.3,3.1,2,4.6h452.6C485.1,358.3,485.8,356.7,486.5,355.2L486.5,355.2z"/>
	</g>
	<g>
		<path class="st1" d="M10.8,271.5c-0.1-1.3-0.1-2.6-0.2-3.9h495.2c-0.1,1.3-0.1,2.6-0.2,3.9H10.8z"/>
		<path class="st2" d="M505.4,268c0,1-0.1,2-0.2,3.1H11.1c-0.1-1.1-0.1-2.2-0.2-3.1H505.4 M506.1,267.2H10.2
			c0.1,1.5,0.1,3.1,0.2,4.6h495.5C506,270.3,506.1,268.8,506.1,267.2L506.1,267.2z"/>
	</g>
	<g>
		<path class="st1" d="M11.1,276.1c-0.1-1.3-0.2-2.6-0.3-3.9h494.7c-0.1,1.3-0.2,2.6-0.3,3.9H11.1z"/>
		<path class="st2" d="M505.1,272.6c-0.1,1.1-0.1,2.1-0.2,3.1H11.4c-0.1-1-0.1-2-0.2-3.1H505.1 M505.9,271.9H10.4
			c0.1,1.5,0.2,3.1,0.3,4.6h494.9C505.7,275,505.8,273.4,505.9,271.9L505.9,271.9z"/>
	</g>
	<g>
		<path class="st1" d="M11.5,280.8c-0.1-1.3-0.2-2.6-0.3-3.9h494.1c-0.1,1.3-0.2,2.6-0.3,3.9H11.5z"/>
		<path class="st2" d="M504.8,277.2c-0.1,1-0.2,2-0.3,3.1H11.8c-0.1-1.1-0.2-2.1-0.3-3.1H504.8 M505.6,276.5H10.7
			c0.1,1.5,0.2,3.1,0.4,4.6h494.1C505.4,279.6,505.5,278,505.6,276.5L505.6,276.5z"/>
	</g>
	<g>
		<path class="st1" d="M10.6,266.9c0-1.3-0.1-2.6-0.1-3.9h495.4c0,1.3-0.1,2.6-0.1,3.9H10.6z"/>
		<path class="st2" d="M505.5,263.4c0,1.1-0.1,2.2-0.1,3.1H10.9c0-1-0.1-2-0.1-3.1H505.5 M506.3,262.6H10.1c0,1.5,0.1,3.1,0.1,4.6
			h495.9C506.2,265.7,506.2,264.2,506.3,262.6L506.3,262.6z"/>
	</g>
	<g>
		<path class="st1" d="M10.4,262.2c0-1.3,0-2.6,0-3.9h495.5c0,1.3,0,2.6,0,3.9H10.4z"/>
		<path class="st2" d="M505.6,258.7c0,1,0,2,0,3.1H10.8c0-1.1,0-2.1,0-3.1H505.6 M506.3,258H10c0,1.5,0,3.1,0.1,4.6h496.2
			C506.3,261.1,506.3,259.5,506.3,258L506.3,258z"/>
	</g>
	<g>
		<path class="st1" d="M11.9,285.4c-0.1-1.3-0.3-2.6-0.4-3.9h493.3c-0.1,1.3-0.3,2.6-0.4,3.9H11.9z"/>
		<path class="st2" d="M504.4,281.9c-0.1,1.1-0.2,2.1-0.3,3.1H12.3c-0.1-1-0.2-2.1-0.3-3.1H504.4 M505.2,281.1H11.1
			c0.1,1.5,0.3,3.1,0.5,4.6h493.2C504.9,284.2,505.1,282.7,505.2,281.1L505.2,281.1z"/>
	</g>
	<g>
		<path class="st1" d="M14.7,303.9c-0.2-1.3-0.5-2.6-0.7-3.9h488.4c-0.2,1.3-0.5,2.6-0.7,3.9H14.7z"/>
		<path class="st2" d="M501.9,300.4c-0.2,1.1-0.4,2.1-0.6,3.1H15c-0.2-1-0.4-2.1-0.6-3.1H501.9 M502.8,299.6H13.5
			c0.3,1.5,0.5,3.1,0.8,4.6h487.6C502.3,302.7,502.5,301.2,502.8,299.6L502.8,299.6z"/>
	</g>
	<g>
		<path class="st1" d="M15.6,308.5c-0.3-1.3-0.5-2.6-0.8-3.9h486.7c-0.2,1.3-0.5,2.6-0.8,3.9H15.6z"/>
		<path class="st2" d="M501.1,305c-0.2,1-0.4,2.1-0.6,3.1H15.9c-0.2-1.1-0.4-2.1-0.6-3.1H501.1 M502,304.3H14.4
			c0.3,1.5,0.6,3.1,0.9,4.6H501C501.4,307.4,501.7,305.8,502,304.3L502,304.3z"/>
	</g>
	<g>
		<path class="st1" d="M16.6,313.1c-0.3-1.3-0.6-2.6-0.8-3.9h484.8c-0.3,1.3-0.6,2.6-0.8,3.9H16.6z"/>
		<path class="st2" d="M500.1,309.6c-0.2,1.1-0.5,2.1-0.7,3.1H16.9c-0.2-1-0.5-2.1-0.7-3.1H500.1 M501,308.9H15.3
			c0.3,1.5,0.7,3.1,1,4.6H500C500.4,312,500.7,310.4,501,308.9L501,308.9z"/>
	</g>
	<g>
		<path class="st1" d="M12.5,290c-0.2-1.3-0.3-2.6-0.5-3.9h492.3c-0.1,1.3-0.3,2.6-0.5,3.9H12.5z"/>
		<path class="st2" d="M503.9,286.5c-0.1,1-0.2,2.1-0.4,3.1H12.8c-0.1-1.1-0.3-2.1-0.4-3.1H503.9 M504.8,285.8H11.6
			c0.2,1.5,0.4,3.1,0.6,4.6h492C504.4,288.8,504.6,287.3,504.8,285.8L504.8,285.8z"/>
	</g>
	<g>
		<path class="st1" d="M13.1,294.6c-0.2-1.3-0.4-2.6-0.5-3.9h491.2c-0.2,1.3-0.4,2.6-0.5,3.9H13.1z"/>
		<path class="st2" d="M503.3,291.1c-0.1,1.1-0.3,2.1-0.4,3.1H13.4c-0.2-1-0.3-2.1-0.4-3.1H503.3 M504.2,290.4h-492
			c0.2,1.5,0.4,3.1,0.6,4.6h490.7C503.8,293.5,504,291.9,504.2,290.4L504.2,290.4z"/>
	</g>
	<g>
		<path class="st1" d="M13.9,299.3c-0.2-1.3-0.4-2.6-0.6-3.9h489.9c-0.2,1.3-0.4,2.6-0.6,3.9H13.9z"/>
		<path class="st2" d="M502.7,295.8c-0.2,1-0.3,2.1-0.5,3.1h-488c-0.2-1.1-0.3-2.1-0.5-3.1H502.7 M503.5,295H12.8
			c0.2,1.5,0.5,3.1,0.7,4.6h489.3C503.1,298.1,503.3,296.6,503.5,295L503.5,295z"/>
	</g>
	<g>
		<path class="st1" d="M28.2,350.2c-0.5-1.3-1-2.6-1.5-3.9h463c-0.5,1.3-1,2.6-1.5,3.9H28.2z"/>
		<path class="st2" d="M489.1,346.7c-0.4,1-0.8,2-1.2,3.1H28.4c-0.4-1.1-0.8-2.1-1.2-3.1H489.1 M490.2,345.9H26.1
			c0.6,1.6,1.2,3.1,1.8,4.6h460.5C489,349,489.6,347.5,490.2,345.9L490.2,345.9z"/>
	</g>
	<g>
		<path class="st1" d="M123.3,465.9c-1.9-1.3-3.9-2.6-5.8-3.9h281.1c-1.9,1.3-3.8,2.6-5.8,3.9H123.3z"/>
		<path class="st2" d="M397.5,462.4c-1.5,1.1-3.1,2.1-4.7,3.1H123.5c-1.6-1-3.1-2.1-4.7-3.1H397.5 M399.9,461.6H116.4
			c2.3,1.6,4.5,3.1,6.9,4.6h269.8C395.3,464.7,397.6,463.2,399.9,461.6L399.9,461.6z"/>
	</g>
	<g>
		<path class="st1" d="M130.7,470.5c-2.1-1.3-4.2-2.6-6.2-3.9h267.3c-2.1,1.3-4.1,2.6-6.2,3.9H130.7z"/>
		<path class="st2" d="M390.5,467c-1.7,1.1-3.4,2.1-5.1,3.1H130.8c-1.7-1-3.4-2.1-5.1-3.1H390.5 M393,466.2H123.2
			c2.4,1.6,4.9,3.1,7.4,4.6h255C388.1,469.4,390.6,467.8,393,466.2L393,466.2z"/>
	</g>
	<g>
		<path class="st1" d="M116.5,461.2c-1.8-1.3-3.7-2.6-5.4-3.9h294.1c-1.7,1.3-3.5,2.6-5.4,3.9H116.5z"/>
		<path class="st2" d="M404,457.7c-1.4,1-2.9,2.1-4.4,3.1h-283c-1.5-1-3-2.1-4.4-3.1H404 M406.3,457H110c2.1,1.6,4.2,3.1,6.4,4.6
			h283.5C402.1,460.1,404.2,458.6,406.3,457L406.3,457z"/>
	</g>
	<g>
		<path class="st1" d="M138.7,475.1c-2.3-1.3-4.5-2.6-6.8-3.9h252.3c-2.2,1.3-4.5,2.6-6.8,3.9H138.7z"/>
		<path class="st2" d="M382.9,471.6c-1.8,1.1-3.7,2.1-5.5,3.1H138.8c-1.8-1-3.7-2.1-5.5-3.1H382.9 M385.6,470.9h-255
			c2.6,1.6,5.3,3.1,8,4.6h238.9C380.3,474,383,472.5,385.6,470.9L385.6,470.9z"/>
	</g>
	<g>
		<path class="st1" d="M93.1,442.7c-1.4-1.3-2.8-2.6-4.2-3.9h338.5c-1.4,1.3-2.8,2.6-4.2,3.9H93.1z"/>
		<path class="st2" d="M426.4,439.2c-1.1,1.1-2.3,2.1-3.4,3.1H93.3c-1.1-1-2.3-2.1-3.4-3.1H426.4 M428.3,438.5H88
			c1.7,1.6,3.3,3.1,5,4.6h330.3C425,441.6,426.7,440,428.3,438.5L428.3,438.5z"/>
	</g>
	<g>
		<path class="st1" d="M110.1,456.6c-1.6-1.2-3.3-2.5-5-3.9h306.2c-1.7,1.3-3.4,2.6-5,3.9H110.1z"/>
		<path class="st2" d="M410.1,453.1c-1.4,1.1-2.7,2.1-4.1,3.1H110.2c-1.3-1-2.7-2-4.1-3.1H410.1 M412.3,452.4H104c2,1.6,4,3.1,6,4.6
			h296.4C408.3,455.5,410.3,453.9,412.3,452.4L412.3,452.4z"/>
	</g>
	<g>
		<path class="st1" d="M104.1,452c-1.6-1.3-3.2-2.6-4.8-3.9h317.6c-1.5,1.3-3.1,2.6-4.8,3.9H104.1z"/>
		<path class="st2" d="M415.9,448.5c-1.2,1-2.5,2.1-3.9,3.1H104.2c-1.3-1-2.6-2.1-3.8-3.1H415.9 M418,447.7H98.3
			c1.9,1.6,3.7,3.1,5.7,4.6h308.3C414.2,450.8,416.1,449.3,418,447.7L418,447.7z"/>
	</g>
	<g>
		<path class="st1" d="M147.5,479.8c-2.5-1.2-5-2.5-7.4-3.9h236c-2.5,1.3-5,2.6-7.4,3.9H147.5z"/>
		<path class="st2" d="M374.6,476.3c-2,1.1-4,2.1-6,3.1h-221c-2-1-4-2.1-6-3.1H374.6 M377.6,475.5H138.7c2.9,1.6,5.8,3.1,8.8,4.6
			h221.3C371.7,478.6,374.7,477.1,377.6,475.5L377.6,475.5z"/>
	</g>
	<g>
		<path class="st1" d="M219.7,502.9c-6.5-1-13-2.3-19.5-3.9h115.7c-6.5,1.6-13.1,2.9-19.6,3.9H219.7z"/>
		<path class="st2" d="M312.6,499.4c-5.4,1.2-10.9,2.3-16.4,3.1h-76.5c-5.4-0.9-10.9-1.9-16.3-3.1H312.6 M319,498.6H197.1
			c7.4,1.9,14.9,3.4,22.6,4.6h76.6C304,502.1,311.5,500.5,319,498.6L319,498.6z"/>
	</g>
	<g>
		<path class="st1" d="M181.3,493.6c-3.7-1.2-7.3-2.5-11-3.9h175.6c-3.6,1.4-7.3,2.7-11,3.9H181.3z"/>
		<path class="st2" d="M343.8,490.1c-3,1.1-6,2.2-9,3.1H181.3c-3-1-6-2-9-3.1H343.8 M347.9,489.4H168.3c4.2,1.7,8.6,3.2,12.9,4.6
			H335C339.3,492.6,343.7,491,347.9,489.4L347.9,489.4z"/>
	</g>
	<g>
		<path class="st1" d="M197.1,498.3c-4.5-1.2-9-2.5-13.5-3.9h149c-4.5,1.4-9.1,2.7-13.6,3.9H197.1z"/>
		<path class="st2" d="M330.1,494.8c-3.7,1.1-7.5,2.2-11.2,3.1H197.2c-3.7-1-7.5-2-11.2-3.1H330.1 M335,494H181.2
			c5.2,1.7,10.5,3.3,15.9,4.6H319C324.4,497.3,329.7,495.7,335,494L335,494z"/>
	</g>
	<g>
		<path class="st1" d="M168.4,489c-3.1-1.2-6.3-2.5-9.4-3.9h198.2c-3.1,1.4-6.2,2.7-9.4,3.9H168.4z"/>
		<path class="st2" d="M355.4,485.5c-2.5,1.1-5.1,2.1-7.6,3.1H168.4c-2.5-1-5.1-2-7.6-3.1H355.4 M359,484.8H157.2
			c3.6,1.6,7.3,3.2,11.1,4.6h179.6C351.6,487.9,355.3,486.4,359,484.8L359,484.8z"/>
	</g>
	<g>
		<path class="st1" d="M157.3,484.4c-2.8-1.2-5.5-2.5-8.3-3.9h218.1c-2.7,1.3-5.5,2.6-8.3,3.9H157.3z"/>
		<path class="st2" d="M365.6,480.9c-2.2,1.1-4.5,2.1-6.7,3.1H157.4c-2.2-1-4.5-2.1-6.7-3.1H365.6 M368.8,480.1H147.4
			c3.2,1.6,6.5,3.2,9.8,4.6H359C362.3,483.3,365.6,481.7,368.8,480.1L368.8,480.1z"/>
	</g>
	<g>
		<path class="st1" d="M70.4,419.6c-1.1-1.3-2.2-2.6-3.3-3.9h382c-1.1,1.3-2.2,2.6-3.3,3.9H70.4z"/>
		<path class="st2" d="M448.3,416.1c-0.9,1-1.8,2.1-2.6,3.1H70.6c-0.9-1-1.8-2.1-2.6-3.1H448.3 M449.9,415.3H66.4
			c1.3,1.6,2.6,3.1,3.9,4.6h375.8C447.4,418.4,448.7,416.9,449.9,415.3L449.9,415.3z"/>
	</g>
	<g>
		<path class="st1" d="M56,401.1c-0.9-1.3-1.8-2.6-2.7-3.9h409.8c-0.9,1.3-1.8,2.6-2.7,3.9H56z"/>
		<path class="st2" d="M462.3,397.6c-0.7,1.1-1.4,2.1-2.2,3.1h-404c-0.7-1-1.5-2.1-2.2-3.1H462.3 M463.8,396.8H52.5
			c1.1,1.6,2.1,3.1,3.2,4.6h404.8C461.6,399.9,462.7,398.4,463.8,396.8L463.8,396.8z"/>
	</g>
	<g>
		<path class="st1" d="M52.7,396.5c-0.9-1.3-1.7-2.6-2.6-3.9H466c-0.8,1.3-1.7,2.6-2.6,3.9H52.7z"/>
		<path class="st2" d="M465.4,392.9c-0.7,1.1-1.4,2.1-2.1,3.1H52.9c-0.7-1-1.4-2.1-2.1-3.1H465.4 M466.8,392.2H49.5
			c1,1.6,2,3.1,3.1,4.6h411.2C464.8,395.3,465.8,393.8,466.8,392.2L466.8,392.2z"/>
	</g>
	<g>
		<path class="st1" d="M59.3,405.7c-1-1.3-1.9-2.6-2.8-3.9h403.3c-0.9,1.3-1.9,2.6-2.8,3.9H59.3z"/>
		<path class="st2" d="M459.1,402.2c-0.7,1-1.5,2.1-2.3,3.1H59.5c-0.8-1-1.5-2.1-2.3-3.1H459.1 M460.5,401.5H55.8
			c1.1,1.6,2.2,3.1,3.4,4.6h398.1C458.3,404.6,459.4,403,460.5,401.5L460.5,401.5z"/>
	</g>
	<g>
		<path class="st1" d="M46.8,387.2c-0.8-1.3-1.6-2.6-2.3-3.9h427.4c-0.8,1.3-1.5,2.6-2.3,3.9H46.8z"/>
		<path class="st2" d="M471.2,383.7c-0.6,1-1.2,2.1-1.9,3.1H47c-0.6-1-1.3-2.1-1.9-3.1L471.2,383.7 M472.5,382.9H43.8
			c0.9,1.6,1.8,3.1,2.8,4.6h423.1C470.7,386,471.6,384.5,472.5,382.9L472.5,382.9z"/>
	</g>
	<g>
		<path class="st1" d="M62.8,410.3c-1-1.3-2-2.6-3-3.9h396.6c-1,1.3-2,2.6-3,3.9H62.8z"/>
		<path class="st2" d="M455.7,406.8c-0.8,1-1.6,2.1-2.4,3.1H63c-0.8-1-1.6-2.1-2.4-3.1H455.7 M457.2,406.1H59.1
			c1.2,1.6,2.3,3.1,3.5,4.6h391C454.8,409.2,456,407.6,457.2,406.1L457.2,406.1z"/>
	</g>
	<g>
		<path class="st1" d="M88.1,438.1c-1.4-1.3-2.7-2.6-4-3.9h348.1c-1.3,1.3-2.6,2.6-4,3.9H88.1z"/>
		<path class="st2" d="M431.3,434.6c-1.1,1-2.2,2.1-3.2,3.1H88.3c-1.1-1-2.2-2.1-3.2-3.1H431.3 M433.1,433.9H83.2
			c1.6,1.6,3.2,3.1,4.8,4.6h340.4C429.9,437,431.5,435.4,433.1,433.9L433.1,433.9z"/>
	</g>
	<g>
		<path class="st1" d="M49.7,391.8c-0.8-1.3-1.6-2.6-2.4-3.9h421.8c-0.8,1.3-1.6,2.6-2.4,3.9H49.7z"/>
		<path class="st2" d="M468.4,388.3c-0.7,1.1-1.3,2.1-2,3.1H49.9c-0.7-1-1.3-2.1-2-3.1H468.4 M469.7,387.6H46.6
			c1,1.6,1.9,3.1,2.9,4.6h417.3C467.8,390.7,468.8,389.1,469.7,387.6L469.7,387.6z"/>
	</g>
	<g>
		<path class="st1" d="M83.3,433.5c-1.3-1.3-2.6-2.6-3.8-3.9h357.2c-1.2,1.3-2.5,2.6-3.8,3.9H83.3z"/>
		<path class="st2" d="M435.9,430c-1,1-2,2.1-3.1,3.1H83.5c-1.1-1-2.1-2.1-3.1-3.1H435.9 M437.6,429.2h-359c1.5,1.6,3,3.1,4.5,4.6
			H433C434.6,432.3,436.2,430.8,437.6,429.2L437.6,429.2z"/>
	</g>
	<g>
		<path class="st1" d="M78.8,428.8c-1.2-1.2-2.4-2.5-3.6-3.9h365.9c-1.2,1.3-2.4,2.6-3.6,3.9H78.8z"/>
		<path class="st2" d="M440.2,425.3c-1,1.1-2,2.1-2.9,3.1H79c-1-1-1.9-2.1-2.9-3.1H440.2 M441.9,424.6H74.3c1.4,1.6,2.8,3.1,4.3,4.6
			h359C439.1,427.7,440.5,426.2,441.9,424.6L441.9,424.6z"/>
	</g>
	<g>
		<path class="st1" d="M66.5,415c-1-1.3-2.1-2.6-3.1-3.9h389.4c-1,1.3-2.1,2.6-3.1,3.9H66.5z"/>
		<path class="st2" d="M452.1,411.5c-0.8,1-1.7,2.1-2.5,3.1H66.7c-0.8-1-1.7-2.1-2.5-3.1H452.1 M453.6,410.7h-391
			c1.2,1.6,2.5,3.1,3.7,4.6h383.6C451.2,413.8,452.4,412.3,453.6,410.7L453.6,410.7z"/>
	</g>
	<g>
		<path class="st1" d="M44,382.6c-0.7-1.3-1.5-2.6-2.2-3.9h432.7c-0.7,1.3-1.5,2.6-2.2,3.9H44z"/>
		<path class="st2" d="M473.9,379.1c-0.6,1-1.2,2.1-1.8,3.1H44.2c-0.6-1.1-1.2-2.1-1.8-3.1H473.9 M475.1,378.3h-434
			c0.9,1.6,1.7,3.1,2.6,4.6h428.7C473.4,381.4,474.3,379.9,475.1,378.3L475.1,378.3z"/>
	</g>
	<g>
		<path class="st1" d="M74.5,424.2c-1.1-1.3-2.3-2.6-3.4-3.9h374.1c-1.1,1.3-2.3,2.6-3.4,3.9H74.5z"/>
		<path class="st2" d="M444.4,420.7c-0.9,1.1-1.9,2.1-2.8,3.1H74.7c-0.9-1-1.9-2.1-2.8-3.1H444.4 M446,420H70.3
			c1.3,1.6,2.7,3.1,4.1,4.6H442C443.3,423.1,444.7,421.5,446,420L446,420z"/>
	</g>
	<g>
		<path class="st1" d="M98.4,447.4c-1.5-1.2-3-2.5-4.5-3.9h328.3c-1.5,1.3-3,2.6-4.5,3.9H98.4z"/>
		<path class="st2" d="M421.3,443.9c-1.2,1.1-2.4,2.1-3.6,3.1H98.6c-1.2-1-2.4-2.1-3.6-3.1H421.3 M423.3,443.1H93
			c1.8,1.6,3.5,3.1,5.3,4.6H418C419.8,446.2,421.5,444.7,423.3,443.1L423.3,443.1z"/>
	</g>
	<g>
		<path class="st1" d="M79.1,86.4c1.3-1.3,2.5-2.6,3.8-3.9h350.7c1.2,1.2,2.5,2.5,3.8,3.9H79.1z"/>
		<path class="st2" d="M433.4,82.9c1,1,2,2.1,3.1,3.1H79.9c1-1.1,2.1-2.1,3.1-3.1H433.4 M433.7,82.1h-351c-1.5,1.5-3,3.1-4.5,4.6
			h360C436.7,85.2,435.2,83.6,433.7,82.1L433.7,82.1z"/>
	</g>
	<g>
		<path class="st1" d="M74.8,91c1.2-1.3,2.4-2.6,3.6-3.9h359.7c1.2,1.3,2.4,2.6,3.6,3.9H74.8z"/>
		<path class="st2" d="M437.9,87.5c1,1,1.9,2.1,2.9,3.1H75.6c1-1.1,1.9-2.1,2.9-3.1H437.9 M438.2,86.7h-360
			c-1.4,1.5-2.9,3.1-4.3,4.6h368.6C441.1,89.8,439.7,88.3,438.2,86.7L438.2,86.7z"/>
	</g>
	<g>
		<path class="st1" d="M83.6,81.7c1.3-1.3,2.6-2.6,4-3.9h341.2c1.4,1.3,2.7,2.6,4,3.9H83.6z"/>
		<path class="st2" d="M428.7,78.2c1.1,1,2.2,2.1,3.2,3.1H84.5c1.1-1,2.1-2.1,3.2-3.1H428.7 M429,77.5H87.4
			c-1.6,1.5-3.2,3.1-4.7,4.6h351C432.2,80.6,430.6,79,429,77.5L429,77.5z"/>
	</g>
	<g>
		<path class="st1" d="M70.7,95.6c1.1-1.3,2.3-2.6,3.4-3.9h368.2c1.1,1.3,2.3,2.6,3.4,3.9H70.7z"/>
		<path class="st2" d="M442.2,92.1c0.9,1,1.8,2.1,2.8,3.1H71.5c0.9-1.1,1.8-2.1,2.8-3.1H442.2 M442.5,91.4H73.9
			c-1.4,1.5-2.7,3.1-4.1,4.6h376.7C445.2,94.4,443.9,92.9,442.5,91.4L442.5,91.4z"/>
	</g>
	<g>
		<path class="st1" d="M93.4,72.5c1.5-1.3,3-2.6,4.4-3.9h320.7c1.5,1.3,3,2.6,4.4,3.9H93.4z"/>
		<path class="st2" d="M418.4,69c1.2,1,2.4,2.1,3.6,3.1H94.4C95.6,71,96.8,70,98,69H418.4 M418.7,68.2h-321
			c-1.8,1.5-3.6,3.1-5.3,4.6h331.5C422.2,71.3,420.5,69.8,418.7,68.2L418.7,68.2z"/>
	</g>
	<g>
		<path class="st1" d="M88.4,77.1c1.4-1.3,2.8-2.6,4.2-3.9h331.2c1.5,1.3,2.9,2.6,4.2,3.9H88.4z"/>
		<path class="st2" d="M423.7,73.6c1.2,1,2.3,2.1,3.4,3.1H89.3c1.1-1,2.3-2.1,3.4-3.1H423.7 M424,72.9H92.5c-1.7,1.5-3.4,3.1-5,4.6
			H429C427.3,75.9,425.7,74.4,424,72.9L424,72.9z"/>
	</g>
	<g>
		<path class="st1" d="M98.8,67.9c1.5-1.3,3.1-2.6,4.7-3.9h309.4c1.6,1.3,3.2,2.6,4.7,3.9H98.8z"/>
		<path class="st2" d="M412.8,64.4c1.3,1,2.6,2.1,3.8,3.1H99.8c1.3-1.1,2.5-2.1,3.8-3.1H412.8 M413.1,63.6H103.4
			c-1.9,1.5-3.8,3.1-5.6,4.6h320.9C416.8,66.7,415,65.1,413.1,63.6L413.1,63.6z"/>
	</g>
	<g>
		<path class="st1" d="M56.1,114.1c0.9-1.3,1.9-2.6,2.8-3.9h398.5c0.9,1.3,1.9,2.6,2.8,3.9H56.1z"/>
		<path class="st2" d="M457.2,110.6c0.8,1,1.5,2.1,2.3,3.1H56.9c0.7-1,1.5-2.1,2.3-3.1H457.2 M457.6,109.9H58.8
			c-1.1,1.5-2.3,3.1-3.3,4.6h405.6C459.9,113,458.8,111.4,457.6,109.9L457.6,109.9z"/>
	</g>
	<g>
		<path class="st1" d="M52.9,118.8c0.9-1.3,1.8-2.6,2.7-3.9h405.2c0.9,1.3,1.8,2.6,2.7,3.9H52.9z"/>
		<path class="st2" d="M460.6,115.3c0.7,1,1.5,2.1,2.2,3.1H53.6c0.7-1,1.4-2.1,2.2-3.1H460.6 M461,114.5H55.4
			c-1.1,1.5-2.1,3.1-3.2,4.6h411.9C463.1,117.6,462.1,116,461,114.5L461,114.5z"/>
	</g>
	<g>
		<path class="st1" d="M66.8,100.3c1.1-1.3,2.2-2.6,3.3-3.9h376.3c1.1,1.3,2.2,2.6,3.3,3.9H66.8z"/>
		<path class="st2" d="M446.2,96.8c0.9,1,1.8,2.1,2.6,3.1H67.6c0.9-1,1.7-2.1,2.6-3.1H446.2 M446.6,96H69.8
			c-1.3,1.5-2.6,3.1-3.9,4.6h384.5C449.2,99.1,447.9,97.5,446.6,96L446.6,96z"/>
	</g>
	<g>
		<path class="st1" d="M49.9,123.4c0.8-1.3,1.7-2.6,2.6-3.9H464c0.9,1.3,1.7,2.6,2.6,3.9H49.9z"/>
		<path class="st2" d="M463.8,119.9c0.7,1.1,1.4,2.1,2.1,3.1H50.6c0.7-1,1.4-2.1,2.1-3.1H463.8 M464.2,119.1h-412
			c-1,1.5-2,3.1-3,4.6h418C466.2,122.2,465.2,120.7,464.2,119.1L464.2,119.1z"/>
	</g>
	<g>
		<path class="st1" d="M63.1,104.9c1-1.3,2.1-2.6,3.1-3.9h384.1c1,1.3,2.1,2.6,3.1,3.9H63.1z"/>
		<path class="st2" d="M450.1,101.4c0.8,1,1.7,2.1,2.5,3.1H63.8c0.8-1.1,1.7-2.1,2.5-3.1H450.1 M450.4,100.6H66
			c-1.2,1.5-2.5,3.1-3.7,4.6h391.8C452.9,103.7,451.7,102.2,450.4,100.6L450.4,100.6z"/>
	</g>
	<g>
		<path class="st1" d="M59.5,109.5c1-1.3,2-2.6,3-3.9H454c1,1.3,2,2.6,3,3.9H59.5z"/>
		<path class="st2" d="M453.7,106c0.8,1,1.6,2.1,2.4,3.1H60.3c0.8-1,1.6-2.1,2.4-3.1H453.7 M454.1,105.3H62.3
			c-1.2,1.5-2.4,3.1-3.5,4.6h398.9C456.5,108.3,455.3,106.8,454.1,105.3L454.1,105.3z"/>
	</g>
	<g>
		<path class="st1" d="M139.2,40.1c2.4-1.3,4.9-2.6,7.4-3.9h223.3c2.5,1.3,5,2.6,7.3,3.9H139.2z"/>
		<path class="st2" d="M369.8,36.6c2,1,4,2.1,6,3.1h-235c2-1.1,4-2.1,6-3.1H369.8 M370,35.8H146.5c-2.9,1.5-5.8,3-8.7,4.6h240.9
			C375.8,38.9,372.9,37.3,370,35.8L370,35.8z"/>
	</g>
	<g>
		<path class="st1" d="M182.1,21.6c4.4-1.4,8.8-2.7,13.3-3.9h125.9c4.4,1.2,8.8,2.5,13.1,3.9H182.1z"/>
		<path class="st2" d="M321.2,18.1c3.6,1,7.3,2,10.8,3.1H184.5c3.6-1.1,7.2-2.2,10.9-3.1H321.2 M321.3,17.3h-126
			c-5.2,1.4-10.4,2.9-15.5,4.6h157C331.7,20.2,326.5,18.7,321.3,17.3L321.3,17.3z"/>
	</g>
	<g>
		<path class="st1" d="M169,26.2c3.5-1.4,7.1-2.7,10.8-3.9h156.9c3.6,1.2,7.2,2.5,10.7,3.9H169z"/>
		<path class="st2" d="M336.7,22.7c2.9,1,5.9,2,8.8,3.1H171.1c2.9-1.1,5.8-2.1,8.8-3.1H336.7 M336.8,22h-157
			c-4.3,1.4-8.5,3-12.7,4.6h182.3C345.3,24.9,341.1,23.4,336.8,22L336.8,22z"/>
	</g>
	<g>
		<path class="st1" d="M198.2,17c6.1-1.5,12.3-2.8,18.6-3.9H300c6.1,1.1,12.3,2.4,18.4,3.9H198.2z"/>
		<path class="st2" d="M299.9,13.4c5.1,0.9,10.2,1.9,15.3,3.1H201.4c5.1-1.2,10.3-2.3,15.4-3.1H299.9 M300,12.7h-83.2
			c-7.3,1.2-14.4,2.8-21.5,4.6h126C314.3,15.5,307.2,13.9,300,12.7L300,12.7z"/>
	</g>
	<g>
		<path class="st1" d="M221.5,12.3c12.2-1.8,24.7-2.8,37.1-2.8c6.2,0,12.4,0.2,18.6,0.7c6,0.5,12.1,1.2,18.1,2.1H221.5z"/>
		<path class="st2" d="M258.6,9.9c6.2,0,12.4,0.2,18.5,0.7c4.3,0.3,8.5,0.8,12.8,1.3h-63C237.4,10.6,248,9.9,258.6,9.9 M258.6,9.2
			c-14.3,0-28.2,1.2-41.8,3.5H300c-7.5-1.3-15.1-2.2-22.8-2.8C271,9.4,264.8,9.2,258.6,9.2L258.6,9.2z"/>
	</g>
	<g>
		<path class="st1" d="M157.9,30.8c3-1.3,6.1-2.6,9.2-3.9h182.3c3.1,1.2,6.2,2.5,9.2,3.9H157.9z"/>
		<path class="st2" d="M349.3,27.3c2.5,1,5,2,7.5,3.1H159.7c2.5-1.1,5-2.1,7.5-3.1H349.3 M349.4,26.6H167.1c-3.7,1.5-7.3,3-10.9,4.6
			h204.2C356.7,29.6,353.1,28,349.4,26.6L349.4,26.6z"/>
	</g>
	<g>
		<path class="st1" d="M104.4,63.2c1.6-1.3,3.3-2.6,5-3.9h297.5c1.7,1.3,3.4,2.6,5,3.9H104.4z"/>
		<path class="st2" d="M406.9,59.7c1.4,1,2.7,2.1,4.1,3.1H105.5c1.3-1.1,2.7-2.1,4.1-3.1H406.9 M407.1,59H109.3c-2,1.5-4,3.1-6,4.6
			H413C411.1,62,409.1,60.5,407.1,59L407.1,59z"/>
	</g>
	<g>
		<path class="st1" d="M257.8,505.9c-6.2,0-12.4-0.2-18.6-0.7c-4.8-0.4-9.6-0.9-14.4-1.5h66.3C280.1,505.1,268.9,505.9,257.8,505.9z
			"/>
		<path class="st2" d="M284.9,504c-9,1-18.1,1.5-27.1,1.5c-6.2,0-12.4-0.2-18.5-0.7c-2.8-0.2-5.5-0.5-8.3-0.8H284.9 M296.3,503.3
			h-76.6c6.4,1,12.9,1.8,19.5,2.3c6.1,0.5,12.3,0.7,18.6,0.7C270.9,506.2,283.7,505.2,296.3,503.3L296.3,503.3z"/>
	</g>
	<g>
		<path class="st1" d="M116.9,54c1.9-1.3,3.8-2.6,5.7-3.9h271.2c1.9,1.2,3.8,2.5,5.7,3.9H116.9z"/>
		<path class="st2" d="M393.7,50.5c1.5,1,3.1,2.1,4.6,3.1H118.1c1.6-1.1,3.1-2.1,4.6-3.1H393.7 M394,49.7H122.5
			c-2.3,1.5-4.6,3-6.8,4.6h285.1C398.5,52.8,396.2,51.2,394,49.7L394,49.7z"/>
	</g>
	<g>
		<path class="st1" d="M148.1,35.5c2.7-1.4,5.4-2.7,8.1-3.9h204c2.7,1.2,5.4,2.5,8.1,3.9H148.1z"/>
		<path class="st2" d="M360.2,32c2.2,1,4.4,2,6.6,3.1H149.7c2.2-1.1,4.4-2.1,6.6-3.1H360.2 M360.3,31.2H156.1
			c-3.3,1.5-6.5,3-9.6,4.6H370C366.8,34.2,363.6,32.7,360.3,31.2L360.3,31.2z"/>
	</g>
	<g>
		<path class="st1" d="M110.4,58.6c1.8-1.3,3.6-2.6,5.4-3.9h284.8c1.8,1.3,3.6,2.6,5.3,3.9H110.4z"/>
		<path class="st2" d="M400.5,55.1c1.5,1,2.9,2.1,4.3,3.1H111.6c1.4-1.1,2.9-2.1,4.3-3.1H400.5 M400.8,54.4H115.7
			c-2.1,1.5-4.3,3.1-6.4,4.6h297.8C405,57.4,402.9,55.9,400.8,54.4L400.8,54.4z"/>
	</g>
	<g>
		<path class="st1" d="M123.8,49.3c2-1.3,4.1-2.6,6.2-3.9h256.6c2,1.2,4.1,2.5,6.2,3.9H123.8z"/>
		<path class="st2" d="M386.4,45.8c1.7,1,3.3,2.1,5,3.1H125c1.7-1.1,3.3-2.1,5-3.1H386.4 M386.6,45.1H129.8c-2.5,1.5-4.9,3-7.3,4.6
			H394C391.5,48.1,389.1,46.6,386.6,45.1L386.6,45.1z"/>
	</g>
	<g>
		<path class="st1" d="M131.2,44.7c2.2-1.3,4.5-2.6,6.7-3.9h240.7c2.3,1.3,4.5,2.6,6.7,3.9H131.2z"/>
		<path class="st2" d="M378.5,41.2c1.8,1,3.6,2.1,5.4,3.1H132.5c1.8-1.1,3.6-2.1,5.4-3.1H378.5 M378.7,40.5H137.8
			c-2.7,1.5-5.3,3-8,4.6h256.8C384,43.5,381.4,42,378.7,40.5L378.7,40.5z"/>
	</g>
	<g>
		<path class="st1" d="M47,128c0.8-1.3,1.6-2.6,2.4-3.9H467c0.8,1.3,1.6,2.6,2.4,3.9H47z"/>
		<path class="st2" d="M466.8,124.5c0.6,1,1.3,2.1,2,3.1H47.6c0.7-1.1,1.3-2.1,2-3.1H466.8 M467.2,123.8h-418
			c-1,1.5-1.9,3.1-2.9,4.6h423.8C469.1,126.8,468.2,125.3,467.2,123.8L467.2,123.8z"/>
	</g>
	<g>
		<path class="st1" d="M15.7,206.7c0.3-1.3,0.6-2.6,0.8-3.9h483.4c0.3,1.3,0.6,2.6,0.8,3.9H15.7z"/>
		<path class="st2" d="M499.6,203.2c0.2,1.1,0.5,2.1,0.7,3.1H16.1c0.2-1,0.4-2.1,0.7-3.1H499.6 M500.2,202.4h-484
			c-0.3,1.5-0.7,3.1-1,4.6h486C500.8,205.5,500.5,204,500.2,202.4L500.2,202.4z"/>
	</g>
	<g>
		<path class="st1" d="M13.2,220.6c0.2-1.3,0.4-2.6,0.6-3.9h488.8c0.2,1.3,0.4,2.6,0.6,3.9H13.2z"/>
		<path class="st2" d="M502.3,217.1c0.2,1,0.3,2.1,0.5,3.1H13.6c0.2-1.1,0.3-2.1,0.5-3.1H502.3 M502.9,216.3H13.5
			c-0.3,1.5-0.5,3.1-0.7,4.6h490.9C503.4,219.4,503.2,217.9,502.9,216.3L502.9,216.3z"/>
	</g>
	<g>
		<path class="st1" d="M13.9,216c0.2-1.3,0.5-2.6,0.7-3.9h487.2c0.2,1.3,0.5,2.6,0.7,3.9H13.9z"/>
		<path class="st2" d="M501.5,212.5c0.2,1.1,0.4,2.1,0.6,3.1H14.3c0.2-1,0.4-2.1,0.6-3.1H501.5 M502.1,211.7H14.3
			c-0.3,1.5-0.6,3.1-0.8,4.6h489.4C502.6,214.8,502.4,213.2,502.1,211.7L502.1,211.7z"/>
	</g>
	<g>
		<path class="st1" d="M10.4,253c0-1.3,0.1-2.6,0.1-3.9h495.3c0,1.3,0.1,2.6,0.1,3.9H10.4z"/>
		<path class="st2" d="M505.4,249.5c0,1,0.1,2.1,0.1,3.1H10.8c0-1.1,0-2.1,0.1-3.1H505.4 M506.2,248.7h-496
			c-0.1,1.5-0.1,3.1-0.1,4.6h496.2C506.3,251.8,506.2,250.3,506.2,248.7L506.2,248.7z"/>
	</g>
	<g>
		<path class="st1" d="M14.7,211.3c0.2-1.3,0.5-2.6,0.8-3.9h485.4c0.3,1.3,0.5,2.6,0.8,3.9H14.7z"/>
		<path class="st2" d="M500.6,207.8c0.2,1,0.4,2.1,0.6,3.1h-486c0.2-1.1,0.4-2.1,0.6-3.1H500.6 M501.2,207.1h-486
			c-0.3,1.5-0.6,3.1-0.9,4.6h487.8C501.8,210.2,501.5,208.6,501.2,207.1L501.2,207.1z"/>
	</g>
	<g>
		<path class="st1" d="M16.7,202.1c0.3-1.3,0.6-2.6,0.9-3.9h481.2c0.3,1.3,0.6,2.6,0.9,3.9H16.7z"/>
		<path class="st2" d="M498.5,198.6c0.3,1,0.5,2.1,0.7,3.1H17.1c0.2-1.1,0.5-2.1,0.7-3.1H498.5 M499.1,197.8H17.3
			c-0.4,1.5-0.7,3.1-1.1,4.6h484C499.8,200.9,499.4,199.4,499.1,197.8L499.1,197.8z"/>
	</g>
	<g>
		<path class="st1" d="M17.8,197.4c0.3-1.3,0.7-2.6,1-3.9h478.8c0.3,1.3,0.7,2.6,1,3.9H17.8z"/>
		<path class="st2" d="M497.3,193.9c0.3,1,0.5,2.1,0.8,3.1H18.3c0.3-1.1,0.5-2.1,0.8-3.1H497.3 M497.9,193.2H18.5
			c-0.4,1.5-0.8,3.1-1.2,4.6h481.8C498.7,196.3,498.3,194.7,497.9,193.2L497.9,193.2z"/>
	</g>
	<g>
		<path class="st1" d="M19,192.8c0.4-1.3,0.7-2.6,1.1-3.9h476.2c0.4,1.3,0.7,2.6,1.1,3.9H19z"/>
		<path class="st2" d="M496,189.3c0.3,1.1,0.6,2.1,0.9,3.1H19.5c0.3-1,0.6-2.1,0.9-3.1H496 M496.6,188.6H19.8
			c-0.4,1.5-0.9,3.1-1.3,4.6h479.4C497.5,191.6,497,190.1,496.6,188.6L496.6,188.6z"/>
	</g>
	<g>
		<path class="st1" d="M12.5,225.2c0.2-1.3,0.4-2.6,0.5-3.9h490.2c0.2,1.3,0.4,2.6,0.5,3.9H12.5z"/>
		<path class="st2" d="M503,221.7c0.2,1.1,0.3,2.1,0.4,3.1H12.9c0.1-1,0.3-2,0.4-3.1H503 M503.6,221H12.7c-0.2,1.5-0.4,3.1-0.6,4.6
			h492.2C504.1,224,503.9,222.5,503.6,221L503.6,221z"/>
	</g>
	<g>
		<path class="st1" d="M10.8,243.7c0.1-1.3,0.2-2.6,0.2-3.9h494.3c0.1,1.3,0.2,2.6,0.2,3.9H10.8z"/>
		<path class="st2" d="M505,240.2c0.1,1,0.1,2.1,0.2,3.1h-494c0.1-1,0.1-2.1,0.2-3.1H505 M505.7,239.5h-495
			c-0.1,1.5-0.2,3.1-0.3,4.6H506C505.9,242.6,505.8,241,505.7,239.5L505.7,239.5z"/>
	</g>
	<g>
		<path class="st1" d="M10.6,248.4c0-1.3,0.1-2.6,0.2-3.9h494.8c0.1,1.3,0.1,2.6,0.2,3.9H10.6z"/>
		<path class="st2" d="M505.2,244.9c0.1,1,0.1,2.1,0.1,3.1H11c0-1,0.1-2.1,0.1-3.1H505.2 M506,244.1H10.4c-0.1,1.5-0.2,3.1-0.2,4.6
			h496C506.1,247.2,506,245.6,506,244.1L506,244.1z"/>
	</g>
	<g>
		<path class="st1" d="M11.1,239.1c0.1-1.3,0.2-2.6,0.3-3.9h493.5c0.1,1.3,0.2,2.6,0.3,3.9H11.1z"/>
		<path class="st2" d="M504.6,235.6c0.1,1,0.2,2.1,0.3,3.1H11.5c0.1-1.1,0.2-2.1,0.3-3.1H504.6 M505.3,234.8H11.1
			c-0.1,1.5-0.3,3.1-0.4,4.6h495C505.6,237.9,505.4,236.4,505.3,234.8L505.3,234.8z"/>
	</g>
	<g>
		<path class="st1" d="M12,229.8c0.1-1.3,0.3-2.6,0.5-3.9H504c0.2,1.3,0.3,2.6,0.5,3.9H12z"/>
		<path class="st2" d="M503.6,226.3c0.1,1,0.3,2,0.4,3.1H12.4c0.1-1.1,0.2-2.1,0.4-3.1H503.6 M504.3,225.6H12.1
			c-0.2,1.5-0.4,3.1-0.6,4.6h493.3C504.6,228.7,504.5,227.1,504.3,225.6L504.3,225.6z"/>
	</g>
	<g>
		<path class="st1" d="M11.5,234.5c0.1-1.3,0.3-2.6,0.4-3.9h492.6c0.1,1.3,0.3,2.6,0.4,3.9H11.5z"/>
		<path class="st2" d="M504.1,231c0.1,1.1,0.2,2.1,0.3,3.1H11.9c0.1-1,0.2-2.1,0.3-3.1H504.1 M504.8,230.2H11.5
			c-0.2,1.5-0.3,3.1-0.5,4.6h494.2C505.1,233.3,505,231.8,504.8,230.2L504.8,230.2z"/>
	</g>
	<g>
		<path class="st1" d="M24.8,174.3c0.5-1.3,0.9-2.6,1.4-3.9h464c0.5,1.3,1,2.6,1.4,3.9H24.8z"/>
		<path class="st2" d="M489.9,170.8c0.4,1.1,0.8,2.1,1.1,3.1H25.3c0.4-1,0.8-2.1,1.1-3.1H489.9 M490.4,170.1H25.9
			c-0.6,1.5-1.1,3.1-1.7,4.6h467.9C491.6,173.1,491,171.6,490.4,170.1L490.4,170.1z"/>
	</g>
	<g>
		<path class="st1" d="M20.3,188.2c0.4-1.3,0.8-2.6,1.2-3.9H495c0.4,1.3,0.8,2.6,1.2,3.9H20.3z"/>
		<path class="st2" d="M494.6,184.7c0.3,1,0.6,2,0.9,3.1H20.8c0.3-1.1,0.6-2.1,0.9-3.1H494.6 M495.2,183.9h-474
			c-0.5,1.5-0.9,3.1-1.4,4.6h476.8C496.1,187,495.7,185.5,495.2,183.9L495.2,183.9z"/>
	</g>
	<g>
		<path class="st1" d="M30.2,160.4c0.6-1.3,1.1-2.6,1.7-3.9h452.6c0.6,1.3,1.1,2.6,1.7,3.9H30.2z"/>
		<path class="st2" d="M484.2,156.9c0.5,1.1,0.9,2.1,1.4,3.1H30.8c0.4-1,0.9-2.1,1.4-3.1H484.2 M484.7,156.2h-453
			c-0.7,1.5-1.4,3.1-2,4.6h457.1C486.1,159.2,485.4,157.7,484.7,156.2L484.7,156.2z"/>
	</g>
	<g>
		<path class="st1" d="M32.2,155.8c0.6-1.3,1.2-2.6,1.8-3.9h448.3c0.6,1.3,1.2,2.6,1.8,3.9H32.2z"/>
		<path class="st2" d="M482.1,152.3c0.5,1,1,2.1,1.4,3.1H32.8c0.5-1,1-2.1,1.4-3.1H482.1 M482.6,151.5H33.8
			c-0.7,1.5-1.4,3.1-2.1,4.6h453C484,154.6,483.3,153.1,482.6,151.5L482.6,151.5z"/>
	</g>
	<g>
		<path class="st1" d="M34.4,151.2c0.6-1.3,1.2-2.6,1.9-3.9h443.8c0.6,1.3,1.3,2.6,1.9,3.9H34.4z"/>
		<path class="st2" d="M479.9,147.7c0.5,1,1,2.1,1.5,3.1H35c0.5-1.1,1-2.1,1.5-3.1H479.9 M480.3,146.9H36c-0.8,1.5-1.5,3.1-2.2,4.6
			h448.8C481.8,150,481.1,148.4,480.3,146.9L480.3,146.9z"/>
	</g>
	<g>
		<path class="st1" d="M41.5,137.3c0.7-1.3,1.5-2.6,2.2-3.9h428.9c0.7,1.3,1.5,2.6,2.2,3.9H41.5z"/>
		<path class="st2" d="M472.4,133.8c0.6,1,1.2,2.1,1.8,3.1h-432c0.6-1,1.2-2.1,1.8-3.1H472.4 M472.8,133H43.5
			c-0.9,1.5-1.8,3.1-2.6,4.6h434.6C474.6,136.1,473.7,134.6,472.8,133L472.8,133z"/>
	</g>
	<g>
		<path class="st1" d="M39,141.9c0.7-1.3,1.4-2.6,2.1-3.9h434.1c0.7,1.3,1.4,2.6,2.1,3.9H39z"/>
		<path class="st2" d="M475,138.4c0.6,1.1,1.1,2.1,1.7,3.1h-437c0.5-1,1.1-2.1,1.7-3.1H475 M475.5,137.7H40.9
			c-0.8,1.5-1.7,3.1-2.5,4.6H478C477.1,140.7,476.3,139.2,475.5,137.7L475.5,137.7z"/>
	</g>
	<g>
		<path class="st1" d="M36.7,146.5c0.7-1.3,1.3-2.6,2-3.9h439.1c0.7,1.3,1.3,2.6,2,3.9H36.7z"/>
		<path class="st2" d="M477.5,143c0.5,1,1.1,2.1,1.6,3.1H37.3c0.5-1,1.1-2.1,1.6-3.1H477.5 M478,142.3H38.4
			c-0.8,1.5-1.6,3.1-2.4,4.6h444.3C479.6,145.4,478.8,143.8,478,142.3L478,142.3z"/>
	</g>
	<g>
		<path class="st1" d="M21.7,183.6c0.4-1.3,0.8-2.6,1.3-3.9h470.4c0.4,1.3,0.8,2.6,1.3,3.9H21.7z"/>
		<path class="st2" d="M493.2,180.1c0.4,1.1,0.7,2.1,1,3.1h-472c0.3-1,0.6-2,1-3.1H493.2 M493.7,179.3h-471c-0.5,1.5-1,3.1-1.5,4.6
			h474C494.7,182.4,494.2,180.8,493.7,179.3L493.7,179.3z"/>
	</g>
	<g>
		<path class="st1" d="M23.2,178.9c0.4-1.3,0.9-2.6,1.3-3.9h467.3c0.5,1.3,0.9,2.6,1.3,3.9H23.2z"/>
		<path class="st2" d="M491.6,175.4c0.4,1,0.7,2,1.1,3.1h-469c0.4-1.1,0.7-2.1,1.1-3.1H491.6 M492.1,174.7H24.2
			c-0.5,1.5-1.1,3.1-1.6,4.6h471.1C493.2,177.8,492.7,176.2,492.1,174.7L492.1,174.7z"/>
	</g>
	<g>
		<path class="st1" d="M44.2,132.7c0.8-1.3,1.5-2.6,2.3-3.9h423.4c0.8,1.3,1.6,2.6,2.3,3.9H44.2z"/>
		<path class="st2" d="M469.7,129.1c0.6,1,1.2,2.1,1.9,3.1H44.8c0.6-1.1,1.3-2.1,1.9-3.1H469.7 M470.1,128.4H46.3
			c-0.9,1.5-1.9,3.1-2.8,4.6h429.3C471.9,131.5,471,129.9,470.1,128.4L470.1,128.4z"/>
	</g>
	<g>
		<path class="st1" d="M28.3,165c0.5-1.3,1.1-2.6,1.6-3.9h456.6c0.5,1.3,1.1,2.6,1.6,3.9H28.3z"/>
		<path class="st2" d="M486.2,161.5c0.4,1,0.8,2,1.3,3.1H28.8c0.4-1.1,0.9-2.1,1.3-3.1H486.2 M486.7,160.8H29.6
			c-0.7,1.5-1.3,3.1-1.9,4.6h460.9C488,163.9,487.4,162.3,486.7,160.8L486.7,160.8z"/>
	</g>
	<g>
		<path class="st1" d="M26.5,169.7c0.5-1.3,1-2.6,1.5-3.9h460.4c0.5,1.3,1,2.6,1.5,3.9H26.5z"/>
		<path class="st2" d="M488.1,166.2c0.4,1.1,0.8,2.1,1.2,3.1H27c0.4-1,0.8-2.1,1.2-3.1H488.1 M488.6,165.4H27.7
			c-0.6,1.5-1.2,3.1-1.8,4.6h464.5C489.8,168.5,489.2,167,488.6,165.4L488.6,165.4z"/>
	</g>
</g>
</svg>
